<?xml version="1.0" standalone="no"?>
<!DOCTYPE svg PUBLIC "-//W3C//DTD SVG 1.1//EN" "http://www.w3.org/Graphics/SVG/1.1/DTD/svg11.dtd" >
<svg>
<metadata>
Created by FontForge 20090622 at Mon Apr 16 08:03:47 2018
 By deploy user
Generated in 2008 by FontLab Studio. Copyright info pending.
</metadata>
<defs>
<font id="Apertura-Medium" horiz-adv-x="548" >
  <font-face 
    font-family="Apertura Md"
    font-weight="450"
    font-stretch="normal"
    units-per-em="1000"
    panose-1="0 0 0 0 0 0 0 0 0 0"
    ascent="750"
    descent="-250"
    x-height="500"
    cap-height="700"
    bbox="-86 -327 992 949"
    underline-thickness="50"
    underline-position="-50"
    unicode-range="U+0020-U+FB02"
  />
<missing-glyph horiz-adv-x="230" 
 />
    <glyph glyph-name="fi" unicode="fi" horiz-adv-x="589" 
d="M9 410v90h69v20q0 100 60.5 160t161.5 60q80 0 139 -21l-22 -89q-59 16 -117 16q-52 0 -81 -33t-29 -93v-20h138v-90h-138v-410h-112v410h-69zM393 0v500h112v-500h-112z" />
    <glyph glyph-name=".notdef" horiz-adv-x="230" 
 />
    <glyph glyph-name=".null" horiz-adv-x="0" 
 />
    <glyph glyph-name="nonmarkingreturn" horiz-adv-x="333" 
 />
    <glyph glyph-name="space" unicode=" " horiz-adv-x="230" 
 />
    <glyph glyph-name="exclam" unicode="!" horiz-adv-x="272" 
d="M89 220l-8 480h115l-8 -480h-99zM70 58q0 28 20 48t47 20q29 0 48.5 -20t19.5 -48q0 -27 -19.5 -47t-48.5 -20q-27 0 -47 20t-20 47z" />
    <glyph glyph-name="quotedbl" unicode="&#x22;" horiz-adv-x="399" 
d="M79 460l-10 240h96v-240h-86zM245 460l-10 240h96v-240h-86z" />
    <glyph glyph-name="numbersign" unicode="#" horiz-adv-x="589" 
d="M293 0l32 186h-112l-32 -186h-91l32 186h-104v90h119l23 134h-109v90h125l34 200h91l-34 -200h112l34 200h91l-34 -200h101v-90h-117l-23 -134h107v-90h-122l-32 -186h-91zM251 410l-23 -134h112l23 134h-112z" />
    <glyph glyph-name="dollar" unicode="$" 
d="M53 33l23 91q99 -36 179 -36q53 0 90 26.5t37 77.5q0 42 -30.5 68t-105.5 50q-193 66 -193 199q0 83 50.5 133t130.5 64v104h96v-102q71 -8 152 -41l-24 -92q-94 37 -172 37q-49 0 -83 -26t-34 -73q0 -37 31 -64t103 -52q93 -34 144 -80.5t51 -119.5q0 -81 -46.5 -131
t-121.5 -67v-99h-96v91q-92 4 -181 42z" />
    <glyph glyph-name="percent" unicode="%" horiz-adv-x="677" 
d="M89 164l460 450l58 -58l-460 -450zM55 563q0 62 43 105t110 43q66 0 109.5 -43t43.5 -105t-43.5 -105.5t-109.5 -43.5q-67 0 -110 43t-43 106zM134 563q0 -34 20 -56.5t54 -22.5q33 0 53.5 22.5t20.5 56.5q0 33 -20.5 55.5t-53.5 22.5q-34 0 -54 -22.5t-20 -55.5z
M316 139q0 63 43 105.5t110 42.5q66 0 109.5 -43t43.5 -105t-43.5 -105.5t-109.5 -43.5q-67 0 -110 43t-43 106zM395 139q0 -34 20 -56.5t54 -22.5q33 0 53.5 22.5t20.5 56.5q0 33 -20.5 55.5t-53.5 22.5q-34 0 -54 -22.5t-20 -55.5z" />
    <glyph glyph-name="ampersand" unicode="&#x26;" horiz-adv-x="658" 
d="M540 130l82 -95l-90 -60l-69 82q-89 -67 -188 -67q-106 0 -167.5 48.5t-61.5 130.5q0 63 36 109.5t109 99.5l-28 34q-52 63 -52 130q0 72 49.5 115t139.5 43q77 0 127.5 -40t50.5 -105q0 -35 -16 -65.5t-36 -50t-60 -52.5l-28 -21l136 -159q25 32 61 88l70 -67
q-27 -52 -65 -98zM160 178q0 -43 31 -67.5t89 -24.5q64 0 120 45l-148 176q-45 -33 -68.5 -63t-23.5 -66zM276 438l15 11q45 32 62.5 52t17.5 53q0 25 -21.5 41.5t-52.5 16.5q-27 0 -51.5 -19.5t-24.5 -49.5q0 -42 38 -84z" />
    <glyph glyph-name="quotesingle" unicode="'" horiz-adv-x="261" 
d="M92 460l-10 240h96v-240h-86z" />
    <glyph glyph-name="parenleft" unicode="(" horiz-adv-x="345" 
d="M159 270q0 -145 43 -255.5t98 -159.5l-42 -51q-84 60 -143.5 179.5t-59.5 286.5q0 173 60 299t143 187l42 -52q-54 -52 -97.5 -170.5t-43.5 -263.5z" />
    <glyph glyph-name="parenright" unicode=")" horiz-adv-x="345" 
d="M187 290q0 145 -43 255.5t-98 159.5l42 51q84 -60 143.5 -179.5t59.5 -286.5q0 -173 -60 -299t-143 -187l-42 52q54 52 97.5 170.5t43.5 263.5z" />
    <glyph glyph-name="asterisk" unicode="*" horiz-adv-x="459" 
d="M12 238v95l148 -7l-80 129l83 47l67 -125l67 125l84 -48l-80 -126l146 7v-95l-148 5l80 -127l-83 -47l-67 125l-67 -125l-83 48l78 124z" />
    <glyph glyph-name="plus" unicode="+" horiz-adv-x="481" 
d="M436 243h-145v-145h-100v145h-145v86h145v145h100v-145h145v-86z" />
    <glyph glyph-name="comma" unicode="," horiz-adv-x="214" 
d="M48 46q0 28 15.5 46t41.5 18q28 0 46 -19.5t18 -51.5q0 -93 -93 -180l-49 31q34 39 48 88q-2 5 -8.5 15.5t-9.5 16.5t-6 16t-3 20z" />
    <glyph glyph-name="hyphen" unicode="-" horiz-adv-x="391" 
d="M346 283h-300v86h300v-86z" />
    <glyph glyph-name="period" unicode="." horiz-adv-x="226" 
d="M46 58q0 28 20 48t47 20q28 0 48 -20t20 -48q0 -27 -20 -47t-48 -20q-27 0 -47 20t-20 47z" />
    <glyph glyph-name="slash" unicode="/" horiz-adv-x="384" 
d="M0 -110l280 840h104l-280 -840h-104z" />
    <glyph glyph-name="zero" unicode="0" horiz-adv-x="607" 
d="M41 350q0 162 66.5 261t195.5 99t196 -99.5t67 -260.5q0 -162 -66.5 -261t-196.5 -99q-129 0 -195.5 99t-66.5 261zM153 350q0 -266 150 -266q151 0 151 266t-151 266q-150 0 -150 -266z" />
    <glyph glyph-name="one" unicode="1" horiz-adv-x="353" 
d="M154 0v606h-122v94h234v-700h-112z" />
    <glyph glyph-name="two" unicode="2" horiz-adv-x="542" 
d="M512 0h-446v66l192 229q76 91 99.5 134.5t21.5 93.5q-1 42 -30.5 66t-71.5 24q-83 0 -175 -57l-38 83q106 71 221 71q92 0 149 -47.5t57 -134.5q0 -66 -32 -123.5t-110 -150.5l-131 -155l2 -5h292v-94z" />
    <glyph glyph-name="three" unicode="3" horiz-adv-x="501" 
d="M122 330v90h64q63 0 104.5 27t41.5 74t-35 73t-89 26q-96 0 -151 -23l-14 84q66 29 165 29q101 0 166.5 -50t65.5 -135q0 -47 -27.5 -85t-73.5 -59v-6q55 -22 88 -68t33 -107q0 -90 -68.5 -145t-173.5 -55q-108 0 -177 29l16 84q59 -23 161 -23q59 0 96.5 29.5t37.5 84.5
q0 62 -40.5 94t-105.5 32h-84z" />
    <glyph glyph-name="four" unicode="4" horiz-adv-x="606" 
d="M381 0v147h-346v64l219 489h114l-203 -459h216v189h112v-189h91v-94h-91v-147h-112z" />
    <glyph glyph-name="five" unicode="5" horiz-adv-x="503" 
d="M49 356v344h376v-94h-264v-156h53q110 0 179 -59.5t69 -160.5q0 -103 -75 -166.5t-191 -63.5q-93 0 -155 19l17 91q64 -16 138 -16q69 0 111.5 34t42.5 102q0 63 -36.5 94.5t-99.5 31.5h-165z" />
    <glyph glyph-name="six" unicode="6" horiz-adv-x="604" 
d="M422 710l20 -92q-169 -22 -240 -145q-29 -52 -38 -121l6 -2q27 32 73 51.5t98 19.5q89 0 151 -58.5t62 -151.5q0 -99 -73.5 -160t-176.5 -61q-115 1 -184.5 81t-69.5 195q0 122 48 225.5t149 161.5q70 41 175 57zM184 156q41 -72 123 -72q59 0 99 32.5t40 88.5
q0 59 -37 90.5t-97 31.5q-49 -1 -90 -24.5t-63 -63.5q5 -53 25 -83z" />
    <glyph glyph-name="seven" unicode="7" horiz-adv-x="467" 
d="M445 634l-219 -634h-112l219 606h-320v94h432v-66z" />
    <glyph glyph-name="eight" unicode="8" horiz-adv-x="616" 
d="M89 520q0 78 64 134t154 56t154.5 -56t64.5 -134q0 -47 -28.5 -87.5t-72.5 -62.5v-6q57 -23 94 -69.5t37 -99.5q0 -87 -72.5 -146t-176.5 -59q-103 0 -175.5 59t-72.5 146q0 53 36.5 99.5t93.5 69.5v6q-44 22 -72 62.5t-28 87.5zM167 202q0 -52 40.5 -85t99.5 -33
q60 0 100.5 33t40.5 85q0 49 -41 82.5t-100 33.5q-58 0 -99 -33.5t-41 -82.5zM197 514q0 -43 32.5 -72.5t77.5 -29.5q47 0 79 29.5t32 72.5q0 44 -32 73t-79 29q-46 0 -78 -29t-32 -73z" />
    <glyph glyph-name="nine" unicode="9" horiz-adv-x="604" 
d="M182 -10l-20 92q171 22 240 137q29 51 38 119l-6 2q-27 -31 -73 -51t-97 -20q-89 0 -151.5 60t-62.5 156q0 101 73.5 163t176.5 62q115 -1 184.5 -83.5t69.5 -200.5q0 -119 -48 -220t-149 -158q-72 -42 -175 -58zM420 544q-39 72 -123 72q-58 0 -98.5 -33.5t-40.5 -91.5
q0 -64 37 -98t97 -34q49 1 90 24t63 63q-3 62 -25 98z" />
    <glyph glyph-name="colon" unicode=":" horiz-adv-x="211" 
d="M50 398q0 28 20 48t47 20q28 0 48 -20t20 -48q0 -27 -20 -47t-48 -20q-27 0 -47 20t-20 47zM50 58q0 28 20 48t47 20q28 0 48 -20t20 -48q0 -27 -20 -47t-48 -20q-27 0 -47 20t-20 47z" />
    <glyph glyph-name="semicolon" unicode=";" horiz-adv-x="211" 
d="M53 394q0 28 20 48t47 20q28 0 48 -20t20 -48q0 -27 -20 -47t-48 -20q-27 0 -47 20t-20 47zM54 46q0 28 15.5 46t41.5 18q28 0 46 -19.5t18 -51.5q0 -93 -93 -180l-49 31q34 39 48 88q-2 5 -8.5 15.5t-9.5 16.5t-6 16t-3 20z" />
    <glyph glyph-name="less" unicode="&#x3c;" horiz-adv-x="531" 
d="M486 381l-310 -119v-6l310 -118v-103l-440 185v79l440 185v-103z" />
    <glyph glyph-name="equal" unicode="=" horiz-adv-x="506" 
d="M460 151h-414v86h414v-86zM460 319h-414v86h414v-86z" />
    <glyph glyph-name="greater" unicode="&#x3e;" horiz-adv-x="531" 
d="M46 138l310 118v6l-310 119v103l440 -185v-79l-440 -185v103z" />
    <glyph glyph-name="question" unicode="?" horiz-adv-x="429" 
d="M251 230l-84 -30q-35 43 -35 82q0 46 19 80.5t58 75.5q2 3 10 11.5t10 11.5t8.5 11t9 11.5t7 10.5t6.5 12t4 12t3 13.5t1 13.5q0 31 -21 49.5t-56 18.5q-49 0 -124 -28l-21 87q84 38 164 38q77 -1 125.5 -44.5t48.5 -112.5q0 -23 -3.5 -40t-16.5 -36.5l-17 -25.5
t-27.5 -30l-26.5 -27q-60 -60 -60 -107q0 -32 18 -57zM123 58q0 28 20 48t47 20q28 0 48 -20t20 -48q0 -27 -20 -47t-48 -20q-27 0 -47 20t-20 47z" />
    <glyph glyph-name="at" unicode="@" horiz-adv-x="951" 
d="M458 450q58 0 101 -32v22h92v-290q0 -41 17 -66t43 -25q107 0 107 211q0 139 -92.5 235.5t-240.5 96.5q-149 0 -243.5 -109t-94.5 -263q0 -163 96.5 -267.5t241.5 -104.5q48 0 93 12l2 -81q-46 -9 -95 -9q-184 0 -307 126.5t-123 323.5q0 199 120 324.5t310 125.5
q182 0 301.5 -115t119.5 -295q0 -67 -20 -129t-67 -108.5t-112 -46.5q-37 0 -71.5 19t-54.5 54q-50 -69 -133 -69q-75 0 -128 63t-53 157q0 96 56 168t135 72zM561 116q-2 20 -2 31v199q-37 26 -93 26q-44 0 -75.5 -49t-31.5 -113q0 -62 31 -102t76 -40q65 0 95 48z" />
    <glyph glyph-name="A" unicode="A" horiz-adv-x="662" 
d="M526 0l-64 183h-263l-64 -183h-122l264 700h107l264 -700h-122zM318 523l-87 -248h199l-86 248l-10 46h-6z" />
    <glyph glyph-name="B" unicode="B" horiz-adv-x="624" 
d="M78 0v700h206q122 0 190.5 -54t68.5 -136q0 -49 -26.5 -87.5t-72.5 -57.5v-6q65 -16 102 -62.5t37 -106.5q0 -82 -68.5 -136t-190.5 -54h-246zM338 310h-148v-216h138q70 0 106.5 28t36.5 74q0 51 -33.5 82.5t-99.5 31.5zM288 606h-98v-206h108q66 0 99.5 29t33.5 76
q0 44 -36 72.5t-107 28.5z" />
    <glyph glyph-name="C" unicode="C" horiz-adv-x="578" 
d="M153 350q0 -114 69 -190t171 -76q90 0 145 23l24 -89q-70 -28 -169 -28q-150 0 -251 103t-101 257t101 257t251 103q100 0 169 -29l-24 -88q-61 23 -145 23q-101 0 -170.5 -78.5t-69.5 -187.5z" />
    <glyph glyph-name="D" unicode="D" horiz-adv-x="682" 
d="M78 0v700h201q161 0 261.5 -99.5t100.5 -250.5t-100.5 -250.5t-261.5 -99.5h-201zM279 606h-89v-512h89q113 0 181.5 72t68.5 184q0 107 -69 181.5t-181 74.5z" />
    <glyph glyph-name="E" unicode="E" 
d="M507 0h-429v700h429v-94h-317v-201h301v-94h-301v-217h317v-94z" />
    <glyph glyph-name="F" unicode="F" horiz-adv-x="539" 
d="M491 311h-301v-311h-112v700h429v-94h-317v-201h301v-94z" />
    <glyph glyph-name="G" unicode="G" horiz-adv-x="680" 
d="M153 350q0 -114 69 -190t171 -76q61 0 109 7v237h112v-300q-90 -38 -221 -38q-150 0 -251 103t-101 257t101 257t251 103q116 0 189 -32l-24 -87q-70 25 -165 25q-101 0 -170.5 -78.5t-69.5 -187.5z" />
    <glyph glyph-name="H" unicode="H" horiz-adv-x="713" 
d="M523 0v311h-333v-311h-112v700h112v-295h333v295h112v-700h-112z" />
    <glyph glyph-name="I" unicode="I" horiz-adv-x="277" 
d="M82 0v700h112v-700h-112z" />
    <glyph glyph-name="J" unicode="J" horiz-adv-x="423" 
d="M234 194v506h112v-506q0 -92 -57 -148t-151 -56q-64 0 -115 22l18 88q42 -16 89 -16q49 0 76.5 29.5t27.5 80.5z" />
    <glyph glyph-name="K" unicode="K" horiz-adv-x="661" 
d="M502 0l-249 302l-63 -71v-231h-112v700h112v-321l6 -2l265 323h136l2 -5l-272 -309l316 -381l-2 -5h-139z" />
    <glyph glyph-name="L" unicode="L" horiz-adv-x="503" 
d="M78 0v700h112v-606h295v-94h-407z" />
    <glyph glyph-name="M" unicode="M" horiz-adv-x="933" 
d="M743 0v530l-6 1l-10 -35l-219 -496h-81l-219 496l-12 42l-6 -1v-537h-112v700h148l228 -526l11 -43h6l11 43l227 526h146v-700h-112z" />
    <glyph glyph-name="N" unicode="N" horiz-adv-x="753" 
d="M571 0l-339 461l-36 63l-6 -2v-522h-112v700h104l341 -469l34 -59l6 2v526h112v-700h-104z" />
    <glyph glyph-name="O" unicode="O" horiz-adv-x="791" 
d="M41 350q0 153 102.5 256.5t251.5 103.5q146 0 250.5 -104t104.5 -256q0 -153 -102.5 -256.5t-252.5 -103.5q-149 0 -251.5 103.5t-102.5 256.5zM153 350q0 -115 68.5 -190.5t173.5 -75.5q104 0 173.5 76t69.5 190q0 110 -69 188t-174 78q-104 0 -173 -78t-69 -188z" />
    <glyph glyph-name="P" unicode="P" horiz-adv-x="630" 
d="M78 0v700h251q127 0 197.5 -61t70.5 -157t-70.5 -157t-197.5 -61h-139v-264h-112zM329 606h-139v-248h139q77 0 116.5 34t39.5 90q0 55 -40 89.5t-116 34.5z" />
    <glyph glyph-name="Q" unicode="Q" horiz-adv-x="808" 
d="M49 350q0 153 102.5 256.5t251.5 103.5q146 0 250.5 -104t104.5 -256q0 -144 -93 -247l113 -114l-75 -68l-118 118q-81 -49 -182 -49q-149 0 -251.5 103.5t-102.5 256.5zM161 350q0 -115 68.5 -190.5t173.5 -75.5q104 0 173.5 76t69.5 190q0 110 -69 188t-174 78
q-104 0 -173 -78t-69 -188z" />
    <glyph glyph-name="R" unicode="R" horiz-adv-x="613" 
d="M474 0l-161 284h-123v-284h-112v700h217q122 0 192 -59.5t70 -148.5q0 -62 -35 -111.5t-99 -74.5l178 -306h-127zM295 606h-105v-228h105q74 0 112 30.5t38 83.5q0 52 -38 83t-112 31z" />
    <glyph glyph-name="S" unicode="S" 
d="M53 33l23 91q99 -36 179 -36q53 0 90 26.5t37 77.5q0 42 -30.5 68t-105.5 50q-193 66 -193 199q0 97 67.5 149t165.5 52q93 0 196 -43l-24 -92q-94 37 -172 37q-49 0 -83 -26t-34 -73q0 -37 31 -64t103 -52q93 -34 144 -80.5t51 -119.5q0 -101 -70.5 -154t-172.5 -53
q-96 0 -202 43z" />
    <glyph glyph-name="T" unicode="T" horiz-adv-x="540" 
d="M522 606h-193v-606h-112v606h-199v94h504v-94z" />
    <glyph glyph-name="U" unicode="U" horiz-adv-x="702" 
d="M634 700v-450q0 -116 -81 -188t-202 -72t-201.5 72t-80.5 188v450h112v-450q0 -77 48 -121.5t122 -44.5q73 0 122 45t49 121v450h112z" />
    <glyph glyph-name="V" unicode="V" horiz-adv-x="670" 
d="M137 700l186 -539l8 -45h6l12 45l183 539h124l-259 -700h-125l-259 700h124z" />
    <glyph glyph-name="W" unicode="W" horiz-adv-x="913" 
d="M501 700l157 -519l6 -38h6l5 38l105 519h119l-168 -700h-113l-154 496l-5 32h-6l-5 -32l-154 -496h-113l-168 700h119l107 -523l4 -34h6l6 34l156 523h90z" />
    <glyph glyph-name="X" unicode="X" horiz-adv-x="669" 
d="M521 0l-185 266l-184 -266h-126l247 358l-237 342h128l172 -250l173 250h128l-237 -342l247 -358h-126z" />
    <glyph glyph-name="Y" unicode="Y" horiz-adv-x="634" 
d="M137 700l168 -324l8 -28h6l9 28l168 324h124l-248 -453v-247h-112v249l-247 451h124z" />
    <glyph glyph-name="Z" unicode="Z" horiz-adv-x="583" 
d="M42 606v94h499v-66l-368 -540h378v-94h-519v66l366 540h-356z" />
    <glyph glyph-name="bracketleft" unicode="[" horiz-adv-x="310" 
d="M78 -178v926h187v-90h-83v-746h83v-90h-187z" />
    <glyph glyph-name="backslash" unicode="\" horiz-adv-x="384" 
d="M104 730l280 -840h-104l-280 840h104z" />
    <glyph glyph-name="bracketright" unicode="]" horiz-adv-x="310" 
d="M46 748h187v-926h-187v90h83v746h-83v90z" />
    <glyph glyph-name="asciicircum" unicode="^" horiz-adv-x="529" 
d="M255 564l-102 -264h-98l165 400h89l165 -400h-98l-101 264l-7 34h-6z" />
    <glyph glyph-name="underscore" unicode="_" horiz-adv-x="507" 
d="M462 -86h-416v86h416v-86z" />
    <glyph glyph-name="grave" unicode="`" horiz-adv-x="294" 
d="M164 700l88 -144h-94l-111 144h117z" />
    <glyph glyph-name="a" unicode="a" horiz-adv-x="632" 
d="M287 510q91 0 146 -47l5 2v35h112v-500h-112v51l-6 2q-54 -63 -155 -63t-171 75.5t-70 184.5t73 184.5t178 75.5zM301 84q97 0 137 76v214q-55 42 -137 42q-63 0 -108 -48t-45 -118q0 -69 45 -117.5t108 -48.5z" />
    <glyph glyph-name="b" unicode="b" horiz-adv-x="622" 
d="M335 -10q-97 0 -160 55l-15 -45h-87v730h112v-281l6 -2q54 63 154 63q101 0 171 -75.5t70 -184.5t-73 -184.5t-178 -75.5zM321 416q-96 0 -136 -74v-223q50 -35 136 -35q63 0 108 48t45 118q0 69 -45 117.5t-108 48.5z" />
    <glyph glyph-name="c" unicode="c" horiz-adv-x="445" 
d="M144 250q0 -70 45 -118t109 -48q67 0 105 23l24 -89q-55 -28 -129 -28q-110 0 -186 75.5t-76 184.5t76 184.5t186 75.5q76 0 129 -27l-24 -88q-50 21 -105 21q-64 0 -109 -48t-45 -118z" />
    <glyph glyph-name="d" unicode="d" horiz-adv-x="610" 
d="M295 510q85 0 143 -41v261h112v-730h-112v43l-6 2q-53 -55 -147 -55q-101 0 -171 75.5t-70 184.5t73 184.5t178 75.5zM309 84q88 0 129 62v239q-51 31 -129 31q-63 0 -108 -48t-45 -118q0 -69 45 -117.5t108 -48.5z" />
    <glyph glyph-name="e" unicode="e" horiz-adv-x="563" 
d="M289 510q103 0 164.5 -58.5t68.5 -167.5v-60h-368q6 -70 47 -104.5t122 -35.5q83 0 147 30l21 -85q-78 -39 -168 -39q-127 0 -204.5 69.5t-77.5 189.5q0 107 68.5 183.5t179.5 77.5zM292 416q-53 0 -87 -30t-46 -80h250q-4 54 -36 82t-81 28z" />
    <glyph glyph-name="f" unicode="f" horiz-adv-x="343" 
d="M9 410v90h81v52q0 86 50.5 137t135.5 51q65 0 113 -21l-20 -85q-33 12 -85 12q-82 0 -82 -94v-52h126v-90h-126v-410h-112v410h-81z" />
    <glyph glyph-name="g" unicode="g" horiz-adv-x="616" 
d="M431 -18v62l-6 2q-54 -56 -148 -56q-103 0 -172 75t-69 185t71.5 185t179.5 75q84 0 144 -39v29h112v-518q0 -100 -72.5 -161t-177.5 -61t-177 29l20 88q58 -23 153 -23q60 0 101 34.5t41 93.5zM301 84q88 0 130 64v236q-52 32 -130 32q-66 0 -109.5 -47.5t-43.5 -118.5
q0 -70 43.5 -118t109.5 -48z" />
    <glyph glyph-name="h" unicode="h" horiz-adv-x="620" 
d="M73 0v730h112v-291l6 -2q61 73 175 73q78 0 129.5 -56t51.5 -158v-296h-112v292q0 62 -30.5 93t-78.5 31q-44 0 -81.5 -19.5t-59.5 -54.5v-342h-112z" />
    <glyph glyph-name="i" unicode="i" horiz-adv-x="288" 
d="M88 0v500h112v-500h-112zM79 650q0 23 17.5 40t46.5 17q30 0 47.5 -17t17.5 -40t-17.5 -39.5t-47.5 -16.5q-29 0 -46.5 17t-17.5 39z" />
    <glyph glyph-name="j" unicode="j" horiz-adv-x="284" 
d="M96 -56v556h108v-556q0 -83 -52.5 -133.5t-139.5 -50.5q-57 0 -98 19l19 87q25 -12 74 -12q42 0 65.5 24t23.5 66zM78 650q0 23 17.5 40t46.5 17q30 0 47.5 -17t17.5 -40t-17.5 -39.5t-47.5 -16.5q-29 0 -46.5 17t-17.5 39z" />
    <glyph glyph-name="k" unicode="k" horiz-adv-x="567" 
d="M415 0l-182 218l-48 -47v-171h-112v730h112v-431l6 -2l185 203h138l2 -6l-209 -204l247 -285l-2 -5h-137z" />
    <glyph glyph-name="l" unicode="l" horiz-adv-x="298" 
d="M261 89l-10 -98q-87 0 -132.5 40.5t-45.5 119.5v579h112v-571q0 -65 76 -70z" />
    <glyph glyph-name="m" unicode="m" horiz-adv-x="935" 
d="M871 296v-296h-112v296q0 60 -27.5 90t-71.5 30q-91 0 -131 -67q2 -22 2 -33v-316h-112v308q0 54 -27.5 81t-71.5 27q-94 0 -135 -74v-342h-112v500h112v-53l6 -3q56 66 157 66q104 0 154 -80q69 80 186 80q80 0 131.5 -55.5t51.5 -158.5z" />
    <glyph glyph-name="n" unicode="n" horiz-adv-x="611" 
d="M73 0v500h112v-61l6 -2q61 73 175 73q78 0 129.5 -55t51.5 -155v-300h-112v296q0 60 -30.5 90t-78.5 30q-95 0 -141 -68v-348h-112z" />
    <glyph glyph-name="o" unicode="o" horiz-adv-x="609" 
d="M36 250q0 109 77 184.5t191 75.5t191.5 -75.5t77.5 -184.5t-77.5 -184.5t-191.5 -75.5t-191 75.5t-77 184.5zM148 250q0 -70 45 -118t111 -48q67 0 112 47.5t45 118.5q0 70 -45 118t-112 48q-66 0 -111 -48t-45 -118z" />
    <glyph glyph-name="p" unicode="p" horiz-adv-x="621" 
d="M334 -10q-90 0 -149 46v-266h-112v730h112v-50l6 -2q55 62 153 62q101 0 171 -75.5t70 -184.5t-72.5 -184.5t-178.5 -75.5zM320 416q-96 0 -135 -68v-233q51 -31 135 -31q63 0 108 48t45 118q0 69 -45 117.5t-108 48.5z" />
    <glyph glyph-name="q" unicode="q" horiz-adv-x="620" 
d="M287 510q87 0 148 -45v35h112v-730h-112v278l-6 2q-55 -60 -152 -60q-101 0 -171 75.5t-70 184.5t73 184.5t178 75.5zM301 84q94 0 134 66v232q-53 34 -134 34q-63 0 -108 -48t-45 -118q0 -69 45 -117.5t108 -48.5z" />
    <glyph glyph-name="r" unicode="r" horiz-adv-x="368" 
d="M73 -1v501h112v-57l6 -2q57 69 145 69h14v-102h-24q-84 0 -141 -59v-350h-112z" />
    <glyph glyph-name="s" unicode="s" horiz-adv-x="466" 
d="M51 24l22 92q83 -30 143 -30q39 0 65 15t26 45q0 24 -20 40t-73 28q-160 37 -160 145q0 72 54.5 111.5t133.5 39.5q76 0 160 -36l-21 -89q-78 30 -135 30q-34 0 -57 -15t-23 -41q0 -43 88 -62q164 -35 164 -149q0 -76 -57 -116.5t-140 -40.5t-170 33z" />
    <glyph glyph-name="t" unicode="t" horiz-adv-x="389" 
d="M13 410v90h77v160h112v-160h136v-90h-136v-233q0 -42 21 -63t57 -21q45 0 71 11l20 -88q-42 -21 -103 -21q-78 0 -128 47.5t-50 130.5v237h-77z" />
    <glyph glyph-name="u" unicode="u" horiz-adv-x="605" 
d="M543 500v-276q0 -104 -69 -169t-172 -65q-102 0 -171 65t-69 169v276h112v-276q0 -66 36 -103t92 -37t92.5 37.5t36.5 102.5v276h112z" />
    <glyph glyph-name="v" unicode="v" horiz-adv-x="545" 
d="M129 500l134 -365l6 -27h6l6 27l134 365h121l-207 -500h-113l-207 500h120z" />
    <glyph glyph-name="w" unicode="w" horiz-adv-x="826" 
d="M460 500l117 -355l7 -35h6l5 35l95 355h118l-154 -500h-125l-111 324l-4 21h-6l-4 -21l-111 -324h-121l-154 500h117l94 -355l5 -31h6l6 31l116 355h98z" />
    <glyph glyph-name="x" unicode="x" horiz-adv-x="570" 
d="M419 0l-133 173l-133 -173h-127l196 256l-188 244h129l123 -161l123 161h129l-188 -244l196 -256h-127z" />
    <glyph glyph-name="y" unicode="y" horiz-adv-x="539" 
d="M137 500l128 -338l8 -37h6l123 375h125l-227 -581q-15 -40 -32.5 -67.5t-44 -52t-66 -36.5t-92.5 -12l-7 93q56 0 86.5 21.5t51.5 71.5l23 68l-207 495h125z" />
    <glyph glyph-name="z" unicode="z" horiz-adv-x="508" 
d="M43 406v94h411v-62l-271 -339l3 -5h278v-94h-431v62l269 339l-3 5h-256z" />
    <glyph glyph-name="braceleft" unicode="{" horiz-adv-x="329" 
d="M271 730l8 -83q-42 0 -53.5 -16.5t-11.5 -59.5v-142q0 -55 -18 -88t-70 -61q88 -43 88 -123v-166q0 -43 11.5 -61t53.5 -17l-8 -82l-17 -2q-82 1 -113 36t-31 108v171q0 36 -20.5 64t-55.5 37v78q40 10 58 38t18 82v151q0 72 33 105t108 33z" />
    <glyph glyph-name="bar" unicode="|" horiz-adv-x="269" 
d="M82 -170v900h104v-900h-104z" />
    <glyph glyph-name="braceright" unicode="}" horiz-adv-x="329" 
d="M42 -169l-8 83q42 0 53.5 16.5t11.5 59.5v142q0 55 18 88t70 61q-88 43 -88 123v166q0 43 -11.5 61t-53.5 17l8 82l17 2q82 -1 113 -36t31 -108v-171q0 -36 20.5 -64t55.5 -37v-78q-40 -10 -58 -38t-18 -82v-151q0 -72 -33 -105t-108 -33z" />
    <glyph glyph-name="asciitilde" unicode="~" horiz-adv-x="570" 
d="M311 348q3 -2 10.5 -7.5t10.5 -7.5l9.5 -6.5t10 -6.5t9.5 -5t10.5 -4.5l10 -3.5t11 -2.5t11.5 -0.5q21 0 40 13.5t26 23t25 36.5l55 -56q-55 -111 -148 -111q-9 0 -19 1.5t-18 3.5t-18.5 7l-16 7.5t-17 9.5l-15 9t-15 10t-13.5 9q-20 15 -31 22.5t-28 14.5t-34 7
q-21 0 -40 -13.5t-26 -23t-25 -36.5l-55 56q56 111 148 111q51 0 132 -57z" />
    <glyph glyph-name="exclamdown" unicode="&#xa1;" horiz-adv-x="270" 
d="M187 280l8 -480h-115l8 480h99zM206 442q0 -28 -20 -48t-47 -20q-29 0 -48.5 20t-19.5 48q0 27 19.5 47t48.5 20q27 0 47 -20t20 -47z" />
    <glyph glyph-name="cent" unicode="&#xa2;" horiz-adv-x="445" 
d="M230 -106v105q-85 21 -139.5 90.5t-54.5 160.5q0 90 54.5 159.5t139.5 91.5v109h92v-101q60 -3 105 -26l-24 -88q-50 21 -105 21q-64 0 -109 -48t-45 -118t45 -118t109 -48q67 0 105 23l24 -89q-48 -24 -105 -27v-97h-92z" />
    <glyph glyph-name="sterling" unicode="&#xa3;" horiz-adv-x="507" 
d="M378 318h-173v-118q0 -62 -28 -106h298v-94h-443v94h5q28 5 42 38t14 68v118h-78v82h78v112q0 103 62.5 165.5t165.5 62.5q93 0 154 -54l-31 -77q-62 37 -123 37q-55 0 -85.5 -36t-30.5 -98v-112h173v-82z" />
    <glyph glyph-name="yen" unicode="&#xa5;" horiz-adv-x="621" 
d="M532 269h-148l-12 -22v-56h160v-82h-160v-109h-112v109h-157v82h157v58l-11 20h-146v82h101l-191 349h124l168 -324l7 -25h8l8 25l168 324h124l-191 -349h103v-82z" />
    <glyph glyph-name="brokenbar" unicode="&#xa6;" horiz-adv-x="260" 
d="M90 -170v382h100v-382h-100zM190 730v-367h-100v367h100z" />
    <glyph glyph-name="section" unicode="&#xa7;" 
d="M538 219q0 -47 -33 -83.5t-88 -56.5q83 -56 83 -135q0 -88 -70 -136t-171 -48q-93 0 -196 43l24 92q97 -37 172 -37q55 0 90 21.5t35 60.5q0 36 -37 61t-126 52q-92 31 -143.5 77.5t-51.5 119.5q0 47 32.5 83.5t87.5 56.5q-82 56 -82 136q0 87 68 135.5t165 48.5
q93 0 196 -43l-24 -92q-97 37 -172 37q-51 0 -84 -22t-33 -60q0 -36 37 -61t126 -52q92 -31 143.5 -77.5t51.5 -120.5zM286 330q-18 5 -52 17q-41 -7 -66.5 -30.5t-25.5 -60.5q0 -42 30 -67.5t106 -48.5l51 -17q41 7 67 30t26 61q0 41 -30 66.5t-106 49.5z" />
    <glyph glyph-name="dieresis" unicode="&#xa8;" horiz-adv-x="473" 
d="M56 658q0 25 17.5 42.5t41.5 17.5q25 0 42.5 -17.5t17.5 -42.5q0 -24 -17.5 -41.5t-42.5 -17.5q-24 0 -41.5 17.5t-17.5 41.5zM306 658q0 25 17.5 42.5t41.5 17.5q25 0 42.5 -17.5t17.5 -42.5q0 -24 -17.5 -41.5t-42.5 -17.5q-24 0 -41.5 17.5t-17.5 41.5z" />
    <glyph glyph-name="copyright" unicode="&#xa9;" horiz-adv-x="791" 
d="M45 350q0 153 101.5 256.5t248.5 103.5q144 0 247.5 -104t103.5 -256q0 -153 -101.5 -256.5t-249.5 -103.5q-147 0 -248.5 103.5t-101.5 256.5zM95 350q0 -138 85.5 -224t214.5 -86q124 0 212.5 87t88.5 223q0 131 -87 220.5t-214 89.5t-213.5 -89.5t-86.5 -220.5z
M283 352q0 -58 35 -97t85 -39q51 0 79 12l11 -52q-36 -15 -90 -15q-77 0 -128.5 54.5t-51.5 136.5q0 81 52 136t128 55q54 0 90 -16l-11 -52q-30 13 -79 13q-50 0 -85 -40.5t-35 -95.5z" />
    <glyph glyph-name="guillemotleft" unicode="&#xab;" horiz-adv-x="506" 
d="M137 236l133 -156l-66 -59l-160 179v70l160 189l68 -58zM343 236l133 -156l-66 -59l-160 179v70l160 189l68 -58z" />
    <glyph glyph-name="registered" unicode="&#xae;" horiz-adv-x="791" 
d="M45 350q0 153 101.5 256.5t248.5 103.5q144 0 247.5 -104t103.5 -256q0 -153 -101.5 -256.5t-249.5 -103.5q-147 0 -248.5 103.5t-101.5 256.5zM95 350q0 -138 85.5 -224t214.5 -86q124 0 212.5 87t88.5 223q0 131 -87 220.5t-214 89.5t-213.5 -89.5t-86.5 -220.5z
M499 161l-92 159h-73v-159h-62v381h124q64 0 100 -31.5t36 -77.5q0 -71 -66 -100l102 -172h-69zM396 486h-62v-110h62q36 0 55 15t19 40q0 24 -19 39.5t-55 15.5z" />
    <glyph glyph-name="macron" unicode="&#xaf;" horiz-adv-x="445" 
d="M46 628v85h354v-85h-354z" />
    <glyph glyph-name="degree" unicode="&#xb0;" horiz-adv-x="325" 
d="M162 688q50 0 86.5 -36.5t36.5 -86.5q0 -51 -36 -86.5t-87 -35.5t-86.5 36t-35.5 86q0 51 35.5 87t86.5 36zM162 496q29 0 49 20t20 49t-20 49t-49 20q-28 0 -48.5 -20t-20.5 -49q0 -28 20.5 -48.5t48.5 -20.5z" />
    <glyph glyph-name="twosuperior" unicode="&#xb2;" horiz-adv-x="369" 
d="M319 363h-256v46l93 89q50 51 57 66q7 14 7 32q0 20 -12.5 31.5t-30.5 11.5q-49 0 -93 -34l-26 56q59 46 127 46q49 0 81.5 -27t32.5 -78q0 -35 -18.5 -64t-66.5 -76l-27 -25l2 -6h130v-68z" />
    <glyph glyph-name="threesuperior" unicode="&#xb3;" horiz-adv-x="365" 
d="M99 506v64h48q35 0 57.5 9.5t22.5 26.5q0 19 -18 29.5t-45 10.5q-61 0 -100 -18l-12 59q46 23 116 23q58 0 96.5 -26t38.5 -70q0 -46 -48 -70v-6q28 -11 46 -33t18 -51q0 -43 -41 -69.5t-102 -26.5q-76 0 -126 23l14 59q42 -18 108 -18q29 0 48 9.5t19 26.5
q0 22 -21.5 35t-54.5 13h-64z" />
    <glyph glyph-name="acute" unicode="&#xb4;" horiz-adv-x="294" 
d="M76 556l88 144h117l-111 -144h-94z" />
    <glyph glyph-name="paragraph" unicode="&#xb6;" horiz-adv-x="495" 
d="M417 700v-700h-100v280h-29q-118 0 -185 59.5t-67 150.5q0 90 67 150t185 60h129z" />
    <glyph glyph-name="periodcentered" unicode="&#xb7;" horiz-adv-x="249" 
d="M46 308q0 28 20 48t47 20q28 0 48 -20t20 -48q0 -27 -20 -47t-48 -20q-27 0 -47 20t-20 47z" />
    <glyph glyph-name="cedilla" unicode="&#xb8;" horiz-adv-x="285" 
d="M140 10h95q35 -79 -4.5 -145.5t-139.5 -66.5l-27 67q70 7 89.5 48t-13.5 97z" />
    <glyph glyph-name="onesuperior" unicode="&#xb9;" horiz-adv-x="222" 
d="M104 364v268h-58v68h138v-336h-80z" />
    <glyph glyph-name="guillemotright" unicode="&#xbb;" horiz-adv-x="507" 
d="M179 244l-110 37l1 6l42 -3l160 -41v-4l-160 -43l-46 -3l-1 6l114 39v6zM386 244l-110 37l1 6l42 -3l160 -41v-4l-160 -43l-46 -3l-1 6l114 39v6z" />
    <glyph glyph-name="onequarter" unicode="&#xbc;" horiz-adv-x="717" 
d="M104 364v268h-58v68h138v-336h-80zM68 164l460 450l58 -58l-460 -450zM547 1v64h-183v46l106 226h83l-95 -204h89v100h80v-100h48v-68h-48v-64h-80z" />
    <glyph glyph-name="onehalf" unicode="&#xbd;" horiz-adv-x="634" 
d="M107 364v268h-58v68h138v-336h-80zM33 164l460 450l58 -58l-460 -450zM584 -1h-256v46l93 89q50 51 57 66q7 14 7 32q0 20 -12.5 31.5t-30.5 11.5q-49 0 -93 -34l-26 56q59 46 127 46q49 0 81.5 -27t32.5 -78q0 -35 -18.5 -64t-66.5 -76l-27 -25l2 -6h130v-68z" />
    <glyph glyph-name="threequarters" unicode="&#xbe;" horiz-adv-x="752" 
d="M99 506v64h48q35 0 57.5 9.5t22.5 26.5q0 19 -18 29.5t-45 10.5q-61 0 -100 -18l-12 59q46 23 116 23q58 0 96.5 -26t38.5 -70q0 -46 -48 -70v-6q28 -11 46 -33t18 -51q0 -43 -41 -69.5t-102 -26.5q-76 0 -126 23l14 59q42 -18 108 -18q29 0 48 9.5t19 26.5
q0 22 -21.5 35t-54.5 13h-64zM121 164l460 450l58 -58l-460 -450zM582 -1v64h-183v46l106 226h83l-95 -204h89v100h80v-100h48v-68h-48v-64h-80z" />
    <glyph glyph-name="questiondown" unicode="&#xbf;" horiz-adv-x="459" 
d="M290 300l-84 -30q18 -25 18 -57q0 -47 -60 -107q-6 -7 -22.5 -23.5t-22.5 -23.5t-17.5 -22t-16 -26t-8.5 -28t-4 -36q0 -69 48.5 -112.5t125.5 -44.5q80 0 164 38l-21 87q-75 -28 -124 -28q-35 0 -56 18.5t-21 49.5q0 7 1 13.5t3 13.5t4 12t6.5 12t7 10.5t9 11.5t8.5 11
t10 11.5t10 11.5q39 41 58 75.5t19 80.5q0 39 -35 82zM334 442q0 -28 -20 -48t-47 -20q-28 0 -48 20t-20 48q0 27 20 47t48 20q27 0 47 -20t20 -47z" />
    <glyph glyph-name="Agrave" unicode="&#xc0;" horiz-adv-x="662" 
d="M526 0l-64 183h-263l-64 -183h-122l264 700h107l264 -700h-122zM318 523l-87 -248h199l-86 248l-10 46h-6zM286 899l88 -144h-94l-111 144h117z" />
    <glyph glyph-name="Aacute" unicode="&#xc1;" horiz-adv-x="662" 
d="M526 0l-64 183h-263l-64 -183h-122l264 700h107l264 -700h-122zM318 523l-87 -248h199l-86 248l-10 46h-6zM265 755l88 144h117l-111 -144h-94z" />
    <glyph glyph-name="Acircumflex" unicode="&#xc2;" horiz-adv-x="662" 
d="M526 0l-64 183h-263l-64 -183h-122l264 700h107l264 -700h-122zM318 523l-87 -248h199l-86 248l-10 46h-6zM324 815l-65 -60h-103l-2 6l130 114h81l130 -114l-2 -6h-103z" />
    <glyph glyph-name="Atilde" unicode="&#xc3;" horiz-adv-x="662" 
d="M526 0l-64 183h-263l-64 -183h-122l264 700h107l264 -700h-122zM318 523l-87 -248h199l-86 248l-10 46h-6zM388 830q8 0 14.5 2.5t13 8.5t9.5 9t9.5 13t7.5 11l46 -36q-30 -69 -90 -80q-41 -6 -86 26q-3 2 -9 6.5t-9 7t-8 6t-9 5.5t-8.5 4t-9.5 3t-10 1q-12 0 -23 -7
t-16 -13t-15 -21q-2 -3 -3 -4l-47 34q43 82 109 82q32 0 83 -37q29 -21 51 -21z" />
    <glyph glyph-name="Adieresis" unicode="&#xc4;" horiz-adv-x="662" 
d="M526 0l-64 183h-263l-64 -183h-122l264 700h107l264 -700h-122zM318 523l-87 -248h199l-86 248l-10 46h-6zM138 854q0 25 17.5 42.5t41.5 17.5q25 0 42.5 -17.5t17.5 -42.5q0 -24 -17.5 -41.5t-42.5 -17.5q-24 0 -41.5 17.5t-17.5 41.5zM388 854q0 25 17.5 42.5
t41.5 17.5q25 0 42.5 -17.5t17.5 -42.5q0 -24 -17.5 -41.5t-42.5 -17.5q-24 0 -41.5 17.5t-17.5 41.5z" />
    <glyph glyph-name="Aring" unicode="&#xc5;" horiz-adv-x="662" 
d="M526 0l-64 183h-263l-64 -183h-122l264 700h107l264 -700h-122zM318 523l-87 -248h199l-86 248l-10 46h-6zM316 949q40 0 68.5 -28.5t28.5 -68.5t-28.5 -68.5t-68.5 -28.5t-68.5 28.5t-28.5 68.5t28.5 68.5t68.5 28.5zM316 813q16 0 27.5 11.5t11.5 27.5t-11.5 27.5
t-27.5 11.5t-27.5 -11.5t-11.5 -27.5t11.5 -27.5t27.5 -11.5z" />
    <glyph glyph-name="AE" unicode="&#xc6;" horiz-adv-x="1037" 
d="M605 0l-17 169h-264l-94 -169h-118l396 700h454v-94h-311l20 -201h279v-94h-269l21 -217h290v-94h-387zM543 563l-167 -300h203l-30 299z" />
    <glyph glyph-name="Ccedilla" unicode="&#xc7;" horiz-adv-x="578" 
d="M153 350q0 -114 69 -190t171 -76q90 0 145 23l24 -89q-70 -28 -169 -28q-150 0 -251 103t-101 257t101 257t251 103q100 0 169 -29l-24 -88q-61 23 -145 23q-101 0 -170.5 -78.5t-69.5 -187.5zM310 10h95q35 -79 -4.5 -145.5t-139.5 -66.5l-27 67q70 7 89.5 48t-13.5 97z
" />
    <glyph glyph-name="Egrave" unicode="&#xc8;" 
d="M507 0h-429v700h429v-94h-317v-201h301v-94h-301v-217h317v-94zM259 899l88 -144h-94l-111 144h117z" />
    <glyph glyph-name="Eacute" unicode="&#xc9;" 
d="M507 0h-429v700h429v-94h-317v-201h301v-94h-301v-217h317v-94zM238 755l88 144h117l-111 -144h-94z" />
    <glyph glyph-name="Ecircumflex" unicode="&#xca;" 
d="M507 0h-429v700h429v-94h-317v-201h301v-94h-301v-217h317v-94zM297 815l-65 -60h-103l-2 6l130 114h81l130 -114l-2 -6h-103z" />
    <glyph glyph-name="Edieresis" unicode="&#xcb;" 
d="M507 0h-429v700h429v-94h-317v-201h301v-94h-301v-217h317v-94zM111 854q0 25 17.5 42.5t41.5 17.5q25 0 42.5 -17.5t17.5 -42.5q0 -24 -17.5 -41.5t-42.5 -17.5q-24 0 -41.5 17.5t-17.5 41.5zM361 854q0 25 17.5 42.5t41.5 17.5q25 0 42.5 -17.5t17.5 -42.5
q0 -24 -17.5 -41.5t-42.5 -17.5q-24 0 -41.5 17.5t-17.5 41.5z" />
    <glyph glyph-name="Igrave" unicode="&#xcc;" horiz-adv-x="277" 
d="M82 0v700h112v-700h-112zM96 899l88 -144h-94l-111 144h117z" />
    <glyph glyph-name="Iacute" unicode="&#xcd;" horiz-adv-x="277" 
d="M82 0v700h112v-700h-112zM75 755l88 144h117l-111 -144h-94z" />
    <glyph glyph-name="Icircumflex" unicode="&#xce;" horiz-adv-x="277" 
d="M82 0v700h112v-700h-112zM134 815l-65 -60h-103l-2 6l130 114h81l130 -114l-2 -6h-103z" />
    <glyph glyph-name="Idieresis" unicode="&#xcf;" horiz-adv-x="277" 
d="M82 0v700h112v-700h-112zM-52 854q0 25 17.5 42.5t41.5 17.5q25 0 42.5 -17.5t17.5 -42.5q0 -24 -17.5 -41.5t-42.5 -17.5q-24 0 -41.5 17.5t-17.5 41.5zM198 854q0 25 17.5 42.5t41.5 17.5q25 0 42.5 -17.5t17.5 -42.5q0 -24 -17.5 -41.5t-42.5 -17.5q-24 0 -41.5 17.5
t-17.5 41.5z" />
    <glyph glyph-name="Eth" unicode="&#xd0;" horiz-adv-x="685" 
d="M78 0v311h-65v94h65v295h201q161 0 261.5 -99.5t100.5 -250.5t-100.5 -250.5t-261.5 -99.5h-201zM317 311h-127v-217h89q113 0 181.5 72t68.5 184q0 107 -69 181.5t-181 74.5h-89v-201h127v-94z" />
    <glyph glyph-name="Ntilde" unicode="&#xd1;" horiz-adv-x="753" 
d="M571 0l-339 461l-36 63l-6 -2v-522h-112v700h104l341 -469l34 -59l6 2v526h112v-700h-104zM439 830q8 0 14.5 2.5t13 8.5t9.5 9t9.5 13t7.5 11l46 -36q-30 -69 -90 -80q-41 -6 -86 26q-3 2 -9 6.5t-9 7t-8 6t-9 5.5t-8.5 4t-9.5 3t-10 1q-12 0 -23 -7t-16 -13t-15 -21
q-2 -3 -3 -4l-47 34q43 82 109 82q32 0 83 -37q29 -21 51 -21z" />
    <glyph glyph-name="Ograve" unicode="&#xd2;" horiz-adv-x="791" 
d="M41 350q0 153 102.5 256.5t251.5 103.5q146 0 250.5 -104t104.5 -256q0 -153 -102.5 -256.5t-252.5 -103.5q-149 0 -251.5 103.5t-102.5 256.5zM153 350q0 -115 68.5 -190.5t173.5 -75.5q104 0 173.5 76t69.5 190q0 110 -69 188t-174 78q-104 0 -173 -78t-69 -188z
M361 909l88 -144h-94l-111 144h117z" />
    <glyph glyph-name="Oacute" unicode="&#xd3;" horiz-adv-x="791" 
d="M41 350q0 153 102.5 256.5t251.5 103.5q146 0 250.5 -104t104.5 -256q0 -153 -102.5 -256.5t-252.5 -103.5q-149 0 -251.5 103.5t-102.5 256.5zM153 350q0 -115 68.5 -190.5t173.5 -75.5q104 0 173.5 76t69.5 190q0 110 -69 188t-174 78q-104 0 -173 -78t-69 -188z
M340 765l88 144h117l-111 -144h-94z" />
    <glyph glyph-name="Ocircumflex" unicode="&#xd4;" horiz-adv-x="791" 
d="M41 350q0 153 102.5 256.5t251.5 103.5q146 0 250.5 -104t104.5 -256q0 -153 -102.5 -256.5t-252.5 -103.5q-149 0 -251.5 103.5t-102.5 256.5zM153 350q0 -115 68.5 -190.5t173.5 -75.5q104 0 173.5 76t69.5 190q0 110 -69 188t-174 78q-104 0 -173 -78t-69 -188z
M399 825l-65 -60h-103l-2 6l130 114h81l130 -114l-2 -6h-103z" />
    <glyph glyph-name="Otilde" unicode="&#xd5;" horiz-adv-x="791" 
d="M41 350q0 153 102.5 256.5t251.5 103.5q146 0 250.5 -104t104.5 -256q0 -153 -102.5 -256.5t-252.5 -103.5q-149 0 -251.5 103.5t-102.5 256.5zM153 350q0 -115 68.5 -190.5t173.5 -75.5q104 0 173.5 76t69.5 190q0 110 -69 188t-174 78q-104 0 -173 -78t-69 -188z
M463 840q8 0 14.5 2.5t13 8.5t9.5 9t9.5 13t7.5 11l46 -36q-30 -69 -90 -80q-41 -6 -86 26q-3 2 -9 6.5t-9 7t-8 6t-9 5.5t-8.5 4t-9.5 3t-10 1q-12 0 -23 -7t-16 -13t-15 -21q-2 -3 -3 -4l-47 34q43 82 109 82q32 0 83 -37q29 -21 51 -21z" />
    <glyph glyph-name="Odieresis" unicode="&#xd6;" horiz-adv-x="791" 
d="M41 350q0 153 102.5 256.5t251.5 103.5q146 0 250.5 -104t104.5 -256q0 -153 -102.5 -256.5t-252.5 -103.5q-149 0 -251.5 103.5t-102.5 256.5zM153 350q0 -115 68.5 -190.5t173.5 -75.5q104 0 173.5 76t69.5 190q0 110 -69 188t-174 78q-104 0 -173 -78t-69 -188z
M213 864q0 25 17.5 42.5t41.5 17.5q25 0 42.5 -17.5t17.5 -42.5q0 -24 -17.5 -41.5t-42.5 -17.5q-24 0 -41.5 17.5t-17.5 41.5zM463 864q0 25 17.5 42.5t41.5 17.5q25 0 42.5 -17.5t17.5 -42.5q0 -24 -17.5 -41.5t-42.5 -17.5q-24 0 -41.5 17.5t-17.5 41.5z" />
    <glyph glyph-name="multiply" unicode="&#xd7;" horiz-adv-x="470" 
d="M233 122l-24 121l-134 -26l7 67l114 23l-26 133l67 -6l22 -115l134 27l-7 -67l-114 -23l28 -140z" />
    <glyph glyph-name="Oslash" unicode="&#xd8;" horiz-adv-x="807" 
d="M49 350q0 153 102.5 256.5t251.5 103.5q79 0 153 -36l39 69h79l-58 -104q66 -50 104 -125.5t38 -163.5q0 -153 -102.5 -256.5t-252.5 -103.5q-72 0 -136 26l-47 -85h-79l65 117q-73 48 -115 127.5t-42 174.5zM161 350q0 -140 94 -215l254 455q-47 26 -106 26
q-104 0 -173 -78t-69 -188zM646 350q0 121 -80 199l-252 -449q43 -16 89 -16q104 0 173.5 76t69.5 190z" />
    <glyph glyph-name="Ugrave" unicode="&#xd9;" horiz-adv-x="702" 
d="M634 250v450h-112v-450q0 -76 -49 -121t-122 -45q-74 0 -122 44.5t-48 121.5v450h-112v-450q0 -116 80.5 -188t201.5 -72t202 72t81 188zM311 899l88 -144h-94l-111 144h117z" />
    <glyph glyph-name="Uacute" unicode="&#xda;" horiz-adv-x="702" 
d="M634 700v-450q0 -116 -81 -188t-202 -72t-201.5 72t-80.5 188v450h112v-450q0 -77 48 -121.5t122 -44.5q73 0 122 45t49 121v450h112zM290 755l88 144h117l-111 -144h-94z" />
    <glyph glyph-name="Ucircumflex" unicode="&#xdb;" horiz-adv-x="702" 
d="M634 700v-450q0 -116 -81 -188t-202 -72t-201.5 72t-80.5 188v450h112v-450q0 -77 48 -121.5t122 -44.5q73 0 122 45t49 121v450h112zM349 815l-65 -60h-103l-2 6l130 114h81l130 -114l-2 -6h-103z" />
    <glyph glyph-name="Udieresis" unicode="&#xdc;" horiz-adv-x="702" 
d="M634 700v-450q0 -116 -81 -188t-202 -72t-201.5 72t-80.5 188v450h112v-450q0 -77 48 -121.5t122 -44.5q73 0 122 45t49 121v450h112zM163 854q0 25 17.5 42.5t41.5 17.5q25 0 42.5 -17.5t17.5 -42.5q0 -24 -17.5 -41.5t-42.5 -17.5q-24 0 -41.5 17.5t-17.5 41.5z
M413 854q0 25 17.5 42.5t41.5 17.5q25 0 42.5 -17.5t17.5 -42.5q0 -24 -17.5 -41.5t-42.5 -17.5q-24 0 -41.5 17.5t-17.5 41.5z" />
    <glyph glyph-name="Yacute" unicode="&#xdd;" horiz-adv-x="634" 
d="M137 700l168 -324l8 -28h6l9 28l168 324h124l-248 -453v-247h-112v249l-247 451h124zM255 755l88 144h117l-111 -144h-94z" />
    <glyph glyph-name="Thorn" unicode="&#xde;" horiz-adv-x="633" 
d="M78 0v700h112v-136h139q127 0 199.5 -59.5t72.5 -148.5q0 -90 -72 -149t-200 -59h-139v-148h-112zM329 470h-139v-228h139q79 0 119.5 31t40.5 83q0 51 -40.5 82.5t-119.5 31.5z" />
    <glyph glyph-name="germandbls" unicode="&#xdf;" horiz-adv-x="572" 
d="M161 0h-112v501q-1 91 58 151.5t157 60.5q101 0 151.5 -40t50.5 -112q0 -30 -21 -93q-14 -41 -14 -87q0 -15 9 -32t16 -25t26 -28q25 -23 39 -38t27 -44.5t13 -63.5q0 -83 -61 -125t-157 -40q-60 0 -122 15l13 94q55 -15 110 -15q44 0 72.5 21.5t28.5 61.5t-52 86
q-35 33 -53.5 62t-18.5 69q0 38 20 102q13 39 13 72q0 70 -92 70q-46 0 -74 -36.5t-27 -89.5v-497z" />
    <glyph glyph-name="agrave" unicode="&#xe0;" horiz-adv-x="632" 
d="M287 510q91 0 146 -47l5 2v35h112v-500h-112v51l-6 2q-54 -63 -155 -63t-171 75.5t-70 184.5t73 184.5t178 75.5zM301 84q97 0 137 76v214q-55 42 -137 42q-63 0 -108 -48t-45 -118q0 -69 45 -117.5t108 -48.5zM251 719l88 -144h-94l-111 144h117z" />
    <glyph glyph-name="aacute" unicode="&#xe1;" horiz-adv-x="632" 
d="M287 510q91 0 146 -47l5 2v35h112v-500h-112v51l-6 2q-54 -63 -155 -63t-171 75.5t-70 184.5t73 184.5t178 75.5zM301 84q97 0 137 76v214q-55 42 -137 42q-63 0 -108 -48t-45 -118q0 -69 45 -117.5t108 -48.5zM230 575l88 144h117l-111 -144h-94z" />
    <glyph glyph-name="acircumflex" unicode="&#xe2;" horiz-adv-x="632" 
d="M287 510q91 0 146 -47l5 2v35h112v-500h-112v51l-6 2q-54 -63 -155 -63t-171 75.5t-70 184.5t73 184.5t178 75.5zM301 84q97 0 137 76v214q-55 42 -137 42q-63 0 -108 -48t-45 -118q0 -69 45 -117.5t108 -48.5zM289 635l-65 -60h-103l-2 6l130 114h81l130 -114l-2 -6
h-103z" />
    <glyph glyph-name="atilde" unicode="&#xe3;" horiz-adv-x="632" 
d="M287 510q91 0 146 -47l5 2v35h112v-500h-112v51l-6 2q-54 -63 -155 -63t-171 75.5t-70 184.5t73 184.5t178 75.5zM301 84q97 0 137 76v214q-55 42 -137 42q-63 0 -108 -48t-45 -118q0 -69 45 -117.5t108 -48.5zM353 650q8 0 14.5 2.5t13 8.5t9.5 9t9.5 13t7.5 11l46 -36
q-30 -69 -90 -80q-41 -6 -86 26q-3 2 -9 6.5t-9 7t-8 6t-9 5.5t-8.5 4t-9.5 3t-10 1q-12 0 -23 -7t-16 -13t-15 -21q-2 -3 -3 -4l-47 34q43 82 109 82q32 0 83 -37q29 -21 51 -21z" />
    <glyph glyph-name="adieresis" unicode="&#xe4;" horiz-adv-x="632" 
d="M287 510q91 0 146 -47l5 2v35h112v-500h-112v51l-6 2q-54 -63 -155 -63t-171 75.5t-70 184.5t73 184.5t178 75.5zM301 84q97 0 137 76v214q-55 42 -137 42q-63 0 -108 -48t-45 -118q0 -69 45 -117.5t108 -48.5zM103 674q0 25 17.5 42.5t41.5 17.5q25 0 42.5 -17.5
t17.5 -42.5q0 -24 -17.5 -41.5t-42.5 -17.5q-24 0 -41.5 17.5t-17.5 41.5zM353 674q0 25 17.5 42.5t41.5 17.5q25 0 42.5 -17.5t17.5 -42.5q0 -24 -17.5 -41.5t-42.5 -17.5q-24 0 -41.5 17.5t-17.5 41.5z" />
    <glyph glyph-name="aring" unicode="&#xe5;" horiz-adv-x="632" 
d="M287 510q91 0 146 -47l5 2v35h112v-500h-112v51l-6 2q-54 -63 -155 -63t-171 75.5t-70 184.5t73 184.5t178 75.5zM301 84q97 0 137 76v214q-55 42 -137 42q-63 0 -108 -48t-45 -118q0 -69 45 -117.5t108 -48.5zM281 769q40 0 68.5 -28.5t28.5 -68.5t-28.5 -68.5
t-68.5 -28.5q-41 0 -69 28.5t-28 68.5t28.5 68.5t68.5 28.5zM281 633q16 0 27.5 11.5t11.5 27.5t-11 27.5t-28 11.5q-16 0 -27.5 -11.5t-11.5 -27.5t11.5 -27.5t27.5 -11.5z" />
    <glyph glyph-name="ae" unicode="&#xe6;" horiz-adv-x="918" 
d="M388 0v32l-5 3q-57 -45 -156 -45q-77 0 -129 43.5t-52 116.5t54.5 115t136.5 42t151 -27v26q0 53 -35.5 81.5t-88.5 28.5q-75 0 -149 -22l-16 86q90 30 183 30q114 0 176 -76q70 75 178 76q103 0 164.5 -58.5t68.5 -167.5v-60h-368q6 -70 47 -104.5t122 -35.5
q82 0 147 30l21 -85q-78 -39 -168 -39q-100 0 -170 44v-34h-112zM255 76q93 0 133 43v92q-52 18 -123 18q-46 0 -76.5 -20.5t-30.5 -56.5t27.5 -56t69.5 -20zM639 416q-53 0 -87 -30t-46 -80h250q-4 54 -36 82t-81 28z" />
    <glyph glyph-name="ccedilla" unicode="&#xe7;" horiz-adv-x="445" 
d="M144 250q0 -70 45 -118t109 -48q67 0 105 23l24 -89q-55 -28 -129 -28q-110 0 -186 75.5t-76 184.5t76 184.5t186 75.5q76 0 129 -27l-24 -88q-50 21 -105 21q-64 0 -109 -48t-45 -118zM217 10h95q35 -79 -4.5 -145.5t-139.5 -66.5l-27 67q70 7 89.5 48t-13.5 97z" />
    <glyph glyph-name="egrave" unicode="&#xe8;" horiz-adv-x="563" 
d="M289 510q103 0 164.5 -58.5t68.5 -167.5v-60h-368q6 -70 47 -104.5t122 -35.5q83 0 147 30l21 -85q-78 -39 -168 -39q-127 0 -204.5 69.5t-77.5 189.5q0 107 68.5 183.5t179.5 77.5zM292 416q-53 0 -87 -30t-46 -80h250q-4 54 -36 82t-81 28zM241 719l88 -144h-94
l-111 144h117z" />
    <glyph glyph-name="eacute" unicode="&#xe9;" horiz-adv-x="563" 
d="M289 510q103 0 164.5 -58.5t68.5 -167.5v-60h-368q6 -70 47 -104.5t122 -35.5q83 0 147 30l21 -85q-78 -39 -168 -39q-127 0 -204.5 69.5t-77.5 189.5q0 107 68.5 183.5t179.5 77.5zM292 416q-53 0 -87 -30t-46 -80h250q-4 54 -36 82t-81 28zM220 575l88 144h117
l-111 -144h-94z" />
    <glyph glyph-name="ecircumflex" unicode="&#xea;" horiz-adv-x="563" 
d="M289 510q103 0 164.5 -58.5t68.5 -167.5v-60h-368q6 -70 47 -104.5t122 -35.5q83 0 147 30l21 -85q-78 -39 -168 -39q-127 0 -204.5 69.5t-77.5 189.5q0 107 68.5 183.5t179.5 77.5zM292 416q-53 0 -87 -30t-46 -80h250q-4 54 -36 82t-81 28zM279 635l-65 -60h-103l-2 6
l130 114h81l130 -114l-2 -6h-103z" />
    <glyph glyph-name="edieresis" unicode="&#xeb;" horiz-adv-x="563" 
d="M289 510q103 0 164.5 -58.5t68.5 -167.5v-60h-368q6 -70 47 -104.5t122 -35.5q83 0 147 30l21 -85q-78 -39 -168 -39q-127 0 -204.5 69.5t-77.5 189.5q0 107 68.5 183.5t179.5 77.5zM292 416q-53 0 -87 -30t-46 -80h250q-4 54 -36 82t-81 28zM93 674q0 25 17.5 42.5
t41.5 17.5q25 0 42.5 -17.5t17.5 -42.5q0 -24 -17.5 -41.5t-42.5 -17.5q-24 0 -41.5 17.5t-17.5 41.5zM343 674q0 25 17.5 42.5t41.5 17.5q25 0 42.5 -17.5t17.5 -42.5q0 -24 -17.5 -41.5t-42.5 -17.5q-24 0 -41.5 17.5t-17.5 41.5z" />
    <glyph glyph-name="igrave" unicode="&#xec;" horiz-adv-x="286" 
d="M87 0v500h112v-500h-112zM101 709l88 -144h-94l-111 144h117z" />
    <glyph glyph-name="iacute" unicode="&#xed;" horiz-adv-x="286" 
d="M87 0v500h112v-500h-112zM80 565l88 144h117l-111 -144h-94z" />
    <glyph glyph-name="icircumflex" unicode="&#xee;" horiz-adv-x="286" 
d="M87 0v500h112v-500h-112zM139 625l-65 -60h-103l-2 6l130 114h81l130 -114l-2 -6h-103z" />
    <glyph glyph-name="idieresis" unicode="&#xef;" horiz-adv-x="286" 
d="M87 0v500h112v-500h-112zM-47 664q0 25 17.5 42.5t41.5 17.5q25 0 42.5 -17.5t17.5 -42.5q0 -24 -17.5 -41.5t-42.5 -17.5q-24 0 -41.5 17.5t-17.5 41.5zM203 664q0 25 17.5 42.5t41.5 17.5q25 0 42.5 -17.5t17.5 -42.5q0 -24 -17.5 -41.5t-42.5 -17.5q-24 0 -41.5 17.5
t-17.5 41.5z" />
    <glyph glyph-name="eth" unicode="&#xf0;" horiz-adv-x="589" 
d="M156 620l20 90q107 -19 173 -59l10 -6l87 67l43 -55l-73 -56q132 -124 132 -343q0 -112 -68.5 -189.5t-183.5 -78.5q-104 0 -178 59.5t-74 158.5q0 91 62.5 150t151.5 59q50 0 95 -19t75 -49l6 2q-8 64 -38 120q-25 43 -57 70l-87 -67l-43 55l69 53q-53 29 -122 38z
M420 158q20 42 20 97v1q-57 69 -154 71q-59 0 -96.5 -31.5t-37.5 -90.5q0 -60 40 -94.5t98 -34.5q87 0 130 82z" />
    <glyph glyph-name="ntilde" unicode="&#xf1;" horiz-adv-x="611" 
d="M73 0v500h112v-61l6 -2q61 73 175 73q78 0 129.5 -55t51.5 -155v-300h-112v296q0 60 -30.5 90t-78.5 30q-95 0 -141 -68v-348h-112zM373 650q8 0 14.5 2.5t13 8.5t9.5 9t9.5 13t7.5 11l46 -36q-30 -69 -90 -80q-41 -6 -86 26q-3 2 -9 6.5t-9 7t-8 6t-9 5.5t-8.5 4t-9.5 3
t-10 1q-12 0 -23 -7t-16 -13t-15 -21q-2 -3 -3 -4l-47 34q43 82 109 82q32 0 83 -37q29 -21 51 -21z" />
    <glyph glyph-name="ograve" unicode="&#xf2;" horiz-adv-x="609" 
d="M36 250q0 109 77 184.5t191 75.5t191.5 -75.5t77.5 -184.5t-77.5 -184.5t-191.5 -75.5t-191 75.5t-77 184.5zM148 250q0 -70 45 -118t111 -48q67 0 112 47.5t45 118.5q0 70 -45 118t-112 48q-66 0 -111 -48t-45 -118zM266 719l88 -144h-94l-111 144h117z" />
    <glyph glyph-name="oacute" unicode="&#xf3;" horiz-adv-x="609" 
d="M36 250q0 109 77 184.5t191 75.5t191.5 -75.5t77.5 -184.5t-77.5 -184.5t-191.5 -75.5t-191 75.5t-77 184.5zM148 250q0 -70 45 -118t111 -48q67 0 112 47.5t45 118.5q0 70 -45 118t-112 48q-66 0 -111 -48t-45 -118zM245 575l88 144h117l-111 -144h-94z" />
    <glyph glyph-name="ocircumflex" unicode="&#xf4;" horiz-adv-x="609" 
d="M36 250q0 109 77 184.5t191 75.5t191.5 -75.5t77.5 -184.5t-77.5 -184.5t-191.5 -75.5t-191 75.5t-77 184.5zM148 250q0 -70 45 -118t111 -48q67 0 112 47.5t45 118.5q0 70 -45 118t-112 48q-66 0 -111 -48t-45 -118zM304 635l-65 -60h-103l-2 6l130 114h81l130 -114
l-2 -6h-103z" />
    <glyph glyph-name="otilde" unicode="&#xf5;" horiz-adv-x="609" 
d="M36 250q0 109 77 184.5t191 75.5t191.5 -75.5t77.5 -184.5t-77.5 -184.5t-191.5 -75.5t-191 75.5t-77 184.5zM148 250q0 -70 45 -118t111 -48q67 0 112 47.5t45 118.5q0 70 -45 118t-112 48q-66 0 -111 -48t-45 -118zM368 650q8 0 14.5 2.5t13 8.5t9.5 9t9.5 13t7.5 11
l46 -36q-30 -69 -90 -80q-41 -6 -86 26q-3 2 -9 6.5t-9 7t-8 6t-9 5.5t-8.5 4t-9.5 3t-10 1q-12 0 -23 -7t-16 -13t-15 -21q-2 -3 -3 -4l-47 34q43 82 109 82q32 0 83 -37q29 -21 51 -21z" />
    <glyph glyph-name="odieresis" unicode="&#xf6;" horiz-adv-x="609" 
d="M36 250q0 109 77 184.5t191 75.5t191.5 -75.5t77.5 -184.5t-77.5 -184.5t-191.5 -75.5t-191 75.5t-77 184.5zM148 250q0 -70 45 -118t111 -48q67 0 112 47.5t45 118.5q0 70 -45 118t-112 48q-66 0 -111 -48t-45 -118zM118 674q0 25 17.5 42.5t41.5 17.5q25 0 42.5 -17.5
t17.5 -42.5q0 -24 -17.5 -41.5t-42.5 -17.5q-24 0 -41.5 17.5t-17.5 41.5zM368 674q0 25 17.5 42.5t41.5 17.5q25 0 42.5 -17.5t17.5 -42.5q0 -24 -17.5 -41.5t-42.5 -17.5q-24 0 -41.5 17.5t-17.5 41.5z" />
    <glyph glyph-name="divide" unicode="&#xf7;" horiz-adv-x="491" 
d="M184 440q0 27 19.5 46t46.5 19q28 0 47.5 -19t19.5 -46q0 -26 -19.5 -45t-47.5 -19q-26 0 -46 19.5t-20 44.5zM184 141q0 26 19.5 44.5t45.5 18.5q28 0 47.5 -18.5t19.5 -44.5q0 -25 -19.5 -43.5t-47.5 -18.5q-26 0 -45.5 18.5t-19.5 43.5zM452 248h-406v86h406v-86z" />
    <glyph glyph-name="oslash" unicode="&#xf8;" horiz-adv-x="618" 
d="M40 250q0 109 77 184.5t191 75.5q59 0 107 -21l34 61h78l-53 -94q48 -37 75.5 -90.5t27.5 -115.5q0 -109 -77.5 -184.5t-191.5 -75.5q-39 0 -85 12l-37 -67h-78l53 96q-56 35 -88.5 92.5t-32.5 126.5zM152 250q0 -83 58 -131l158 285q-33 12 -60 12q-66 0 -111 -48
t-45 -118zM465 250q0 66 -42 114l-152 -276q16 -4 37 -4q67 0 112 47.5t45 118.5z" />
    <glyph glyph-name="ugrave" unicode="&#xf9;" horiz-adv-x="605" 
d="M543 224v276h-112v-276q0 -65 -36.5 -102.5t-92.5 -37.5t-92 37t-36 103v276h-112v-276q0 -104 69 -169t171 -65q103 0 172 65t69 169zM266 709l88 -144h-94l-111 144h117z" />
    <glyph glyph-name="uacute" unicode="&#xfa;" horiz-adv-x="605" 
d="M543 500v-276q0 -104 -69 -169t-172 -65q-102 0 -171 65t-69 169v276h112v-276q0 -66 36 -103t92 -37t92.5 37.5t36.5 102.5v276h112zM245 565l88 144h117l-111 -144h-94z" />
    <glyph glyph-name="ucircumflex" unicode="&#xfb;" horiz-adv-x="605" 
d="M543 500v-276q0 -104 -69 -169t-172 -65q-102 0 -171 65t-69 169v276h112v-276q0 -66 36 -103t92 -37t92.5 37.5t36.5 102.5v276h112zM304 625l-65 -60h-103l-2 6l130 114h81l130 -114l-2 -6h-103z" />
    <glyph glyph-name="udieresis" unicode="&#xfc;" horiz-adv-x="605" 
d="M543 500v-276q0 -104 -69 -169t-172 -65q-102 0 -171 65t-69 169v276h112v-276q0 -66 36 -103t92 -37t92.5 37.5t36.5 102.5v276h112zM118 664q0 25 17.5 42.5t41.5 17.5q25 0 42.5 -17.5t17.5 -42.5q0 -24 -17.5 -41.5t-42.5 -17.5q-24 0 -41.5 17.5t-17.5 41.5z
M368 664q0 25 17.5 42.5t41.5 17.5q25 0 42.5 -17.5t17.5 -42.5q0 -24 -17.5 -41.5t-42.5 -17.5q-24 0 -41.5 17.5t-17.5 41.5z" />
    <glyph glyph-name="yacute" unicode="&#xfd;" horiz-adv-x="539" 
d="M137 500l128 -338l8 -37h6l123 375h125l-227 -581q-15 -40 -32.5 -67.5t-44 -52t-66 -36.5t-92.5 -12l-7 93q56 0 86.5 21.5t51.5 71.5l23 68l-207 495h125zM205 565l88 144h117l-111 -144h-94z" />
    <glyph glyph-name="thorn" unicode="&#xfe;" horiz-adv-x="621" 
d="M334 -10q-90 0 -149 46v-266h-112v960h112v-280l6 -2q55 62 153 62q101 0 171 -75.5t70 -184.5t-72.5 -184.5t-178.5 -75.5zM320 416q-95 0 -135 -72v-225q50 -35 135 -35q63 0 108 48t45 118q0 69 -45 117.5t-108 48.5z" />
    <glyph glyph-name="ydieresis" unicode="&#xff;" horiz-adv-x="539" 
d="M137 500l128 -338l8 -37h6l123 375h125l-227 -581q-15 -40 -32.5 -67.5t-44 -52t-66 -36.5t-92.5 -12l-7 93q56 0 86.5 21.5t51.5 71.5l23 68l-207 495h125zM78 664q0 25 17.5 42.5t41.5 17.5q25 0 42.5 -17.5t17.5 -42.5q0 -24 -17.5 -41.5t-42.5 -17.5
q-24 0 -41.5 17.5t-17.5 41.5zM328 664q0 25 17.5 42.5t41.5 17.5q25 0 42.5 -17.5t17.5 -42.5q0 -24 -17.5 -41.5t-42.5 -17.5q-24 0 -41.5 17.5t-17.5 41.5z" />
    <glyph glyph-name="Aogonek" unicode="&#x104;" horiz-adv-x="662" 
d="M526 0l-64 183h-263l-64 -183h-122l264 700h107l264 -700h-122zM318 523l-87 -248h199l-86 248l-10 46h-6zM618 0v-5q-74 -40 -74 -98h112v-63h-192v23q0 103 79 143h75z" />
    <glyph glyph-name="aogonek" unicode="&#x105;" horiz-adv-x="632" 
d="M287 510q91 0 146 -47l5 2v35h112v-500h-112v51l-6 2q-54 -63 -155 -63t-171 75.5t-70 184.5t73 184.5t178 75.5zM301 84q97 0 137 76v214q-55 42 -137 42q-63 0 -108 -48t-45 -118q0 -69 45 -117.5t108 -48.5zM529 0v-5q-74 -40 -74 -98h112v-63h-192v23q0 103 79 143
h75z" />
    <glyph glyph-name="Cacute" unicode="&#x106;" horiz-adv-x="578" 
d="M153 350q0 -114 69 -190t171 -76q90 0 145 23l24 -89q-70 -28 -169 -28q-150 0 -251 103t-101 257t101 257t251 103q100 0 169 -29l-24 -88q-61 23 -145 23q-101 0 -170.5 -78.5t-69.5 -187.5zM320 765l88 144h117l-111 -144h-94z" />
    <glyph glyph-name="cacute" unicode="&#x107;" horiz-adv-x="445" 
d="M144 250q0 -70 45 -118t109 -48q67 0 105 23l24 -89q-55 -28 -129 -28q-110 0 -186 75.5t-76 184.5t76 184.5t186 75.5q76 0 129 -27l-24 -88q-50 21 -105 21q-64 0 -109 -48t-45 -118zM174 575l88 144h117l-111 -144h-94z" />
    <glyph glyph-name="Ccaron" unicode="&#x10c;" horiz-adv-x="578" 
d="M153 350q0 -114 69 -190t171 -76q90 0 145 23l24 -89q-70 -28 -169 -28q-150 0 -251 103t-101 257t101 257t251 103q100 0 169 -29l-24 -88q-61 23 -145 23q-101 0 -170.5 -78.5t-69.5 -187.5zM379 819l66 66h103l2 -6l-130 -114h-81l-130 114l2 6h103z" />
    <glyph glyph-name="ccaron" unicode="&#x10d;" horiz-adv-x="445" 
d="M144 250q0 -70 45 -118t109 -48q67 0 105 23l24 -89q-55 -28 -129 -28q-110 0 -186 75.5t-76 184.5t76 184.5t186 75.5q76 0 129 -27l-24 -88q-50 21 -105 21q-64 0 -109 -48t-45 -118zM233 629l66 66h103l2 -6l-130 -114h-81l-130 114l2 6h103z" />
    <glyph glyph-name="Dcaron" unicode="&#x10e;" horiz-adv-x="682" 
d="M78 0v700h201q161 0 261.5 -99.5t100.5 -250.5t-100.5 -250.5t-261.5 -99.5h-201zM279 606h-89v-512h89q113 0 181.5 72t68.5 184q0 107 -69 181.5t-181 74.5zM273 809l66 66h103l2 -6l-130 -114h-81l-130 114l2 6h103z" />
    <glyph glyph-name="dcaron" unicode="&#x10f;" horiz-adv-x="836" 
d="M295 510q85 0 143 -41v261h112v-730h-112v43l-6 2q-53 -55 -147 -55q-101 0 -171 75.5t-70 184.5t73 184.5t178 75.5zM309 84q88 0 129 62v239q-51 31 -129 31q-63 0 -108 -48t-45 -118q0 -69 45 -117.5t108 -48.5zM673 676q0 28 15.5 46t41.5 18q28 0 46 -19.5t18 -51.5
q0 -93 -93 -180l-49 31q34 39 48 88q-2 5 -8.5 15.5t-9.5 16.5t-6 16t-3 20z" />
    <glyph glyph-name="Dcroat" unicode="&#x110;" horiz-adv-x="685" 
d="M78 0v311h-65v94h65v295h201q161 0 261.5 -99.5t100.5 -250.5t-100.5 -250.5t-261.5 -99.5h-201zM317 311h-127v-217h89q113 0 181.5 72t68.5 184q0 107 -69 181.5t-181 74.5h-89v-201h127v-94z" />
    <glyph glyph-name="dcroat" unicode="&#x111;" horiz-adv-x="610" 
d="M295 510q85 0 143 -41v261h112v-730h-112v43l-6 2q-53 -55 -147 -55q-101 0 -171 75.5t-70 184.5t73 184.5t178 75.5zM309 84q88 0 129 62v239q-51 31 -129 31q-63 0 -108 -48t-45 -118q0 -69 45 -117.5t108 -48.5zM253 582v85h354v-85h-354z" />
    <glyph glyph-name="Eogonek" unicode="&#x118;" 
d="M507 0h-429v700h429v-94h-317v-201h301v-94h-301v-217h317v-94zM469 0v-5q-74 -40 -74 -98h112v-63h-192v23q0 103 79 143h75z" />
    <glyph glyph-name="eogonek" unicode="&#x119;" horiz-adv-x="563" 
d="M289 510q103 0 164.5 -58.5t68.5 -167.5v-60h-368q6 -70 47 -104.5t122 -35.5q83 0 147 30l21 -85q-78 -39 -168 -39q-127 0 -204.5 69.5t-77.5 189.5q0 107 68.5 183.5t179.5 77.5zM292 416q-53 0 -87 -30t-46 -80h250q-4 54 -36 82t-81 28zM484 0v-5q-74 -40 -74 -98
h112v-63h-192v23q0 103 79 143h75z" />
    <glyph glyph-name="Ecaron" unicode="&#x11a;" 
d="M507 0h-429v700h429v-94h-317v-201h301v-94h-301v-217h317v-94zM297 809l66 66h103l2 -6l-130 -114h-81l-130 114l2 6h103z" />
    <glyph glyph-name="ecaron" unicode="&#x11b;" horiz-adv-x="563" 
d="M289 510q103 0 164.5 -58.5t68.5 -167.5v-60h-368q6 -70 47 -104.5t122 -35.5q83 0 147 30l21 -85q-78 -39 -168 -39q-127 0 -204.5 69.5t-77.5 189.5q0 107 68.5 183.5t179.5 77.5zM292 416q-53 0 -87 -30t-46 -80h250q-4 54 -36 82t-81 28zM279 629l66 66h103l2 -6
l-130 -114h-81l-130 114l2 6h103z" />
    <glyph glyph-name="dotlessi" unicode="&#x131;" horiz-adv-x="286" 
d="M87 0v500h112v-500h-112z" />
    <glyph glyph-name="Lacute" unicode="&#x139;" horiz-adv-x="503" 
d="M78 0v700h112v-606h295v-94h-407zM74 755l88 144h117l-111 -144h-94z" />
    <glyph glyph-name="lacute" unicode="&#x13a;" horiz-adv-x="298" 
d="M261 89l-10 -98q-87 0 -132.5 40.5t-45.5 119.5v579h112v-571q0 -65 76 -70zM67 794l88 144h117l-111 -144h-94z" />
    <glyph glyph-name="Lcaron" unicode="&#x13d;" horiz-adv-x="503" 
d="M78 0v700h112v-606h295v-94h-407zM330 465l-10 240h96v-240h-86z" />
    <glyph glyph-name="lcaron" unicode="&#x13e;" horiz-adv-x="298" 
d="M261 89l-10 -98q-87 0 -132.5 40.5t-45.5 119.5v579h112v-571q0 -65 76 -70zM323 504l-10 240h96v-240h-86z" />
    <glyph glyph-name="Lslash" unicode="&#x141;" horiz-adv-x="535" 
d="M110 0v287l-71 -28v79l71 28v334h112v-288l89 36v-79l-89 -36v-239h295v-94h-407z" />
    <glyph glyph-name="lslash" unicode="&#x142;" horiz-adv-x="364" 
d="M306 89l-10 -98q-87 0 -132.5 40.5t-45.5 119.5v178l-76 -30v79l76 30v322h112v-276l84 34v-79l-84 -34v-216q0 -65 76 -70z" />
    <glyph glyph-name="Nacute" unicode="&#x143;" horiz-adv-x="753" 
d="M571 0l-339 461l-36 63l-6 -2v-522h-112v700h104l341 -469l34 -59l6 2v526h112v-700h-104zM316 755l88 144h117l-111 -144h-94z" />
    <glyph glyph-name="nacute" unicode="&#x144;" horiz-adv-x="611" 
d="M73 0v500h112v-61l6 -2q61 73 175 73q78 0 129.5 -55t51.5 -155v-300h-112v296q0 60 -30.5 90t-78.5 30q-95 0 -141 -68v-348h-112zM250 575l88 144h117l-111 -144h-94z" />
    <glyph glyph-name="Ncaron" unicode="&#x147;" horiz-adv-x="753" 
d="M571 0l-339 461l-36 63l-6 -2v-522h-112v700h104l341 -469l34 -59l6 2v526h112v-700h-104zM375 809l66 66h103l2 -6l-130 -114h-81l-130 114l2 6h103z" />
    <glyph glyph-name="ncaron" unicode="&#x148;" horiz-adv-x="611" 
d="M73 0v500h112v-61l6 -2q61 73 175 73q78 0 129.5 -55t51.5 -155v-300h-112v296q0 60 -30.5 90t-78.5 30q-95 0 -141 -68v-348h-112zM309 629l66 66h103l2 -6l-130 -114h-81l-130 114l2 6h103z" />
    <glyph glyph-name="Ohungarumlaut" unicode="&#x150;" horiz-adv-x="791" 
d="M41 350q0 153 102.5 256.5t251.5 103.5q146 0 250.5 -104t104.5 -256q0 -153 -102.5 -256.5t-252.5 -103.5q-149 0 -251.5 103.5t-102.5 256.5zM153 350q0 -115 68.5 -190.5t173.5 -75.5q104 0 173.5 76t69.5 190q0 110 -69 188t-174 78q-104 0 -173 -78t-69 -188z
M276 785l108 144h102l3 -6l-136 -138h-77zM423 791l133 138h109l2 -6l-164 -138h-77z" />
    <glyph glyph-name="ohungarumlaut" unicode="&#x151;" horiz-adv-x="609" 
d="M36 250q0 109 77 184.5t191 75.5t191.5 -75.5t77.5 -184.5t-77.5 -184.5t-191.5 -75.5t-191 75.5t-77 184.5zM148 250q0 -70 45 -118t111 -48q67 0 112 47.5t45 118.5q0 70 -45 118t-112 48q-66 0 -111 -48t-45 -118zM181 595l108 144h102l3 -6l-136 -138h-77zM328 601
l133 138h109l2 -6l-164 -138h-77z" />
    <glyph glyph-name="OE" unicode="&#x152;" horiz-adv-x="946" 
d="M906 0h-403q-50 -10 -110 -10q-150 0 -251 103t-101 257t101 257t251 103q60 0 109 -10h404v-94h-317v-201h301v-94h-301v-217h317v-94zM153 350q0 -114 69 -190t171 -76q53 0 84 6v519q-45 7 -84 7q-101 0 -170.5 -78.5t-69.5 -187.5z" />
    <glyph glyph-name="oe" unicode="&#x153;" horiz-adv-x="998" 
d="M40 250q0 109 77 184.5t191 75.5q67 0 123.5 -28t93.5 -77q33 48 84.5 76t116.5 29q103 0 164.5 -58.5t68.5 -167.5v-60h-368q6 -70 47 -104.5t122 -35.5q82 0 147 30l21 -85q-78 -39 -168 -39q-160 0 -235 104q-37 -49 -93.5 -76.5t-123.5 -27.5q-114 0 -191 75.5
t-77 184.5zM152 250q0 -70 45 -118t111 -48q67 0 112 47.5t45 118.5q0 70 -45 118t-112 48q-66 0 -111 -48t-45 -118zM729 416q-53 0 -87 -30t-46 -80h250q-4 54 -36 82t-81 28z" />
    <glyph glyph-name="Racute" unicode="&#x154;" horiz-adv-x="613" 
d="M474 0l-161 284h-123v-284h-112v700h217q122 0 192 -59.5t70 -148.5q0 -62 -35 -111.5t-99 -74.5l178 -306h-127zM295 606h-105v-228h105q74 0 112 30.5t38 83.5q0 52 -38 83t-112 31zM190 755l88 144h117l-111 -144h-94z" />
    <glyph glyph-name="racute" unicode="&#x155;" horiz-adv-x="368" 
d="M73 -1v501h112v-57l6 -2q57 69 145 69h14v-102h-24q-84 0 -141 -59v-350h-112zM151 575l88 144h117l-111 -144h-94z" />
    <glyph glyph-name="Rcaron" unicode="&#x158;" horiz-adv-x="613" 
d="M474 0l-161 284h-123v-284h-112v700h217q122 0 192 -59.5t70 -148.5q0 -62 -35 -111.5t-99 -74.5l178 -306h-127zM295 606h-105v-228h105q74 0 112 30.5t38 83.5q0 52 -38 83t-112 31zM249 809l66 66h103l2 -6l-130 -114h-81l-130 114l2 6h103z" />
    <glyph glyph-name="rcaron" unicode="&#x159;" horiz-adv-x="368" 
d="M73 -1v501h112v-57l6 -2q57 69 145 69h14v-102h-24q-84 0 -141 -59v-350h-112zM210 629l66 66h103l2 -6l-130 -114h-81l-130 114l2 6h103z" />
    <glyph glyph-name="Sacute" unicode="&#x15a;" 
d="M53 33l23 91q99 -36 179 -36q53 0 90 26.5t37 77.5q0 42 -30.5 68t-105.5 50q-193 66 -193 199q0 97 67.5 149t165.5 52q93 0 196 -43l-24 -92q-94 37 -172 37q-49 0 -83 -26t-34 -73q0 -37 31 -64t103 -52q93 -34 144 -80.5t51 -119.5q0 -101 -70.5 -154t-172.5 -53
q-96 0 -202 43zM216 765l88 144h117l-111 -144h-94z" />
    <glyph glyph-name="sacute" unicode="&#x15b;" horiz-adv-x="466" 
d="M51 24l22 92q83 -30 143 -30q39 0 65 15t26 45q0 24 -20 40t-73 28q-160 37 -160 145q0 72 54.5 111.5t133.5 39.5q76 0 160 -36l-21 -89q-78 30 -135 30q-34 0 -57 -15t-23 -41q0 -43 88 -62q164 -35 164 -149q0 -76 -57 -116.5t-140 -40.5t-170 33zM174 575l88 144h117
l-111 -144h-94z" />
    <glyph glyph-name="Scedilla" unicode="&#x15e;" 
d="M53 33l23 91q99 -36 179 -36q53 0 90 26.5t37 77.5q0 42 -30.5 68t-105.5 50q-193 66 -193 199q0 97 67.5 149t165.5 52q93 0 196 -43l-24 -92q-94 37 -172 37q-49 0 -83 -26t-34 -73q0 -37 31 -64t103 -52q93 -34 144 -80.5t51 -119.5q0 -101 -70.5 -154t-172.5 -53
q-96 0 -202 43zM222 10h95q35 -79 -4.5 -145.5t-139.5 -66.5l-27 67q70 7 89.5 48t-13.5 97z" />
    <glyph glyph-name="scedilla" unicode="&#x15f;" horiz-adv-x="466" 
d="M51 24l22 92q83 -30 143 -30q39 0 65 15t26 45q0 24 -20 40t-73 28q-160 37 -160 145q0 72 54.5 111.5t133.5 39.5q76 0 160 -36l-21 -89q-78 30 -135 30q-34 0 -57 -15t-23 -41q0 -43 88 -62q164 -35 164 -149q0 -76 -57 -116.5t-140 -40.5t-170 33zM180 10h95
q35 -79 -4.5 -145.5t-139.5 -66.5l-27 67q70 7 89.5 48t-13.5 97z" />
    <glyph glyph-name="Scaron" unicode="&#x160;" 
d="M53 33l23 91q99 -36 179 -36q53 0 90 26.5t37 77.5q0 42 -30.5 68t-105.5 50q-193 66 -193 199q0 97 67.5 149t165.5 52q93 0 196 -43l-24 -92q-94 37 -172 37q-49 0 -83 -26t-34 -73q0 -37 31 -64t103 -52q93 -34 144 -80.5t51 -119.5q0 -101 -70.5 -154t-172.5 -53
q-96 0 -202 43zM275 819l66 66h103l2 -6l-130 -114h-81l-130 114l2 6h103z" />
    <glyph glyph-name="scaron" unicode="&#x161;" horiz-adv-x="466" 
d="M51 24l22 92q83 -30 143 -30q39 0 65 15t26 45q0 24 -20 40t-73 28q-160 37 -160 145q0 72 54.5 111.5t133.5 39.5q76 0 160 -36l-21 -89q-78 30 -135 30q-34 0 -57 -15t-23 -41q0 -43 88 -62q164 -35 164 -149q0 -76 -57 -116.5t-140 -40.5t-170 33zM233 629l66 66h103
l2 -6l-130 -114h-81l-130 114l2 6h103z" />
    <glyph glyph-name="Tcommaaccent" unicode="&#x162;" horiz-adv-x="540" 
d="M522 606h-193v-606h-112v606h-199v94h504v-94zM201 -140q0 28 15.5 46t41.5 18q28 0 46 -19.5t18 -51.5q0 -93 -93 -180l-49 31q34 39 48 88q-2 5 -8.5 15.5t-9.5 16.5t-6 16t-3 20z" />
    <glyph glyph-name="tcommaaccent" unicode="&#x163;" horiz-adv-x="389" 
d="M13 410v90h77v160h112v-160h136v-90h-136v-233q0 -42 21 -63t57 -21q45 0 71 11l20 -88q-42 -21 -103 -21q-78 0 -128 47.5t-50 130.5v237h-77zM159 -139q0 28 15.5 46t41.5 18q28 0 46 -19.5t18 -51.5q0 -93 -93 -180l-49 31q34 39 48 88q-2 5 -8.5 15.5t-9.5 16.5
t-6 16t-3 20z" />
    <glyph glyph-name="Tcaron" unicode="&#x164;" horiz-adv-x="540" 
d="M522 606h-193v-606h-112v606h-199v94h504v-94zM264 809l66 66h103l2 -6l-130 -114h-81l-130 114l2 6h103z" />
    <glyph glyph-name="tcaron" unicode="&#x165;" horiz-adv-x="615" 
d="M13 410v90h77v160h112v-160h136v-90h-136v-233q0 -42 21 -63t57 -21q45 0 71 11l20 -88q-42 -21 -103 -21q-78 0 -128 47.5t-50 130.5v237h-77zM452 676q0 28 15.5 46t41.5 18q28 0 46 -19.5t18 -51.5q0 -93 -93 -180l-49 31q34 39 48 88q-2 5 -8.5 15.5t-9.5 16.5t-6 16
t-3 20z" />
    <glyph glyph-name="Uring" unicode="&#x16e;" horiz-adv-x="702" 
d="M634 250v450h-112v-450q0 -76 -49 -121t-122 -45q-74 0 -122 44.5t-48 121.5v450h-112v-450q0 -116 80.5 -188t201.5 -72t202 72t81 188zM341 949q40 0 68.5 -28.5t28.5 -68.5t-28.5 -68.5t-68.5 -28.5q-41 0 -69 28.5t-28 68.5t28.5 68.5t68.5 28.5zM341 813
q16 0 27.5 11.5t11.5 27.5t-11 27.5t-28 11.5q-16 0 -27.5 -11.5t-11.5 -27.5t11.5 -27.5t27.5 -11.5z" />
    <glyph glyph-name="uring" unicode="&#x16f;" horiz-adv-x="605" 
d="M543 224v276h-112v-276q0 -65 -36.5 -102.5t-92.5 -37.5t-92 37t-36 103v276h-112v-276q0 -104 69 -169t171 -65q103 0 172 65t69 169zM296 759q40 0 68.5 -28.5t28.5 -68.5t-28.5 -68.5t-68.5 -28.5t-68.5 28.5t-28.5 68.5t28.5 68.5t68.5 28.5zM296 623q16 0 27.5 11.5
t11.5 27.5t-11.5 27.5t-27.5 11.5t-27.5 -11.5t-11.5 -27.5t11.5 -27.5t27.5 -11.5z" />
    <glyph glyph-name="Uhungarumlaut" unicode="&#x170;" horiz-adv-x="702" 
d="M634 700v-450q0 -116 -81 -188t-202 -72t-201.5 72t-80.5 188v450h112v-450q0 -77 48 -121.5t122 -44.5q73 0 122 45t49 121v450h112zM226 775l108 144h102l3 -6l-136 -138h-77zM373 781l133 138h109l2 -6l-164 -138h-77z" />
    <glyph glyph-name="uhungarumlaut" unicode="&#x171;" horiz-adv-x="605" 
d="M543 500v-276q0 -104 -69 -169t-172 -65q-102 0 -171 65t-69 169v276h112v-276q0 -66 36 -103t92 -37t92.5 37.5t36.5 102.5v276h112zM181 585l108 144h102l3 -6l-136 -138h-77zM328 591l133 138h109l2 -6l-164 -138h-77z" />
    <glyph glyph-name="Ydieresis" unicode="&#x178;" horiz-adv-x="634" 
d="M137 700l168 -324l8 -28h6l9 28l168 324h124l-248 -453v-247h-112v249l-247 451h124zM128 854q0 25 17.5 42.5t41.5 17.5q25 0 42.5 -17.5t17.5 -42.5q0 -24 -17.5 -41.5t-42.5 -17.5q-24 0 -41.5 17.5t-17.5 41.5zM378 854q0 25 17.5 42.5t41.5 17.5q25 0 42.5 -17.5
t17.5 -42.5q0 -24 -17.5 -41.5t-42.5 -17.5q-24 0 -41.5 17.5t-17.5 41.5z" />
    <glyph glyph-name="Zacute" unicode="&#x179;" horiz-adv-x="583" 
d="M42 606v94h499v-66l-368 -540h378v-94h-519v66l366 540h-356zM239 755l88 144h117l-111 -144h-94z" />
    <glyph glyph-name="zacute" unicode="&#x17a;" horiz-adv-x="508" 
d="M43 406v94h411v-62l-271 -339l3 -5h278v-94h-431v62l269 339l-3 5h-256zM190 565l88 144h117l-111 -144h-94z" />
    <glyph glyph-name="Zdotaccent" unicode="&#x17b;" horiz-adv-x="583" 
d="M42 606v94h499v-66l-368 -540h378v-94h-519v66l366 540h-356zM244 819q0 28 18.5 46.5t46.5 18.5q27 0 46 -19t19 -46q0 -28 -18.5 -46.5t-46.5 -18.5t-46.5 18.5t-18.5 46.5z" />
    <glyph glyph-name="zdotaccent" unicode="&#x17c;" horiz-adv-x="508" 
d="M43 406v94h411v-62l-271 -339l3 -5h278v-94h-431v62l269 339l-3 5h-256zM195 629q0 28 18.5 46.5t46.5 18.5q27 0 46 -19t19 -46q0 -28 -18.5 -46.5t-46.5 -18.5t-46.5 18.5t-18.5 46.5z" />
    <glyph glyph-name="Zcaron" unicode="&#x17d;" horiz-adv-x="583" 
d="M42 606v94h499v-66l-368 -540h378v-94h-519v66l366 540h-356zM298 809l66 66h103l2 -6l-130 -114h-81l-130 114l2 6h103z" />
    <glyph glyph-name="zcaron" unicode="&#x17e;" horiz-adv-x="508" 
d="M43 406v94h411v-62l-271 -339l3 -5h278v-94h-431v62l269 339l-3 5h-256zM249 619l66 66h103l2 -6l-130 -114h-81l-130 114l2 6h103z" />
    <glyph glyph-name="florin" unicode="&#x192;" horiz-adv-x="328" 
d="M14 430v70h81v60q0 82 46.5 131t123.5 49q63 0 109 -21l-20 -62q-34 13 -89 13q-43 0 -66.5 -29t-23.5 -81v-60h138v-70h-138v-430q0 -77 -43.5 -123.5t-116.5 -46.5q-34 0 -59 11l10 62q21 -3 49 -3q39 0 59.5 26.5t20.5 73.5v430h-81z" />
    <glyph glyph-name="circumflex" unicode="&#x2c6;" horiz-adv-x="399" 
d="M208 634l-65 -60h-103l-2 6l130 114h81l130 -114l-2 -6h-103z" />
    <glyph glyph-name="caron" unicode="&#x2c7;" horiz-adv-x="399" 
d="M208 628l66 66h103l2 -6l-130 -114h-81l-130 114l2 6h103z" />
    <glyph glyph-name="dotaccent" unicode="&#x2d9;" horiz-adv-x="230" 
d="M50 677q0 28 18.5 46.5t46.5 18.5q27 0 46 -19t19 -46q0 -28 -18.5 -46.5t-46.5 -18.5t-46.5 18.5t-18.5 46.5z" />
    <glyph glyph-name="ring" unicode="&#x2da;" horiz-adv-x="285" 
d="M143 808q40 0 68.5 -28.5t28.5 -68.5t-28.5 -68.5t-68.5 -28.5q-41 0 -69 28t-28 69q0 40 28.5 68.5t68.5 28.5zM143 672q16 0 27.5 11.5t11.5 27.5q0 17 -11 28t-28 11q-16 0 -27.5 -11.5t-11.5 -27.5t11.5 -27.5t27.5 -11.5z" />
    <glyph glyph-name="ogonek" unicode="&#x2db;" horiz-adv-x="310" 
d="M208 0v-5q-74 -40 -74 -98h112v-63h-192v23q0 103 79 143h75z" />
    <glyph glyph-name="tilde" unicode="&#x2dc;" horiz-adv-x="434" 
d="M289 636q8 0 14.5 2.5t13 8.5t9.5 9t9.5 13t7.5 11l46 -36q-30 -69 -90 -80q-41 -6 -86 26q-3 2 -9 6.5t-9 7t-8 6t-9 5.5t-8.5 4t-9.5 3t-10 1q-12 0 -23 -7t-16 -13t-15 -21q-2 -3 -3 -4l-47 34q43 82 109 82q32 0 83 -37q29 -21 51 -21z" />
    <glyph glyph-name="hungarumlaut" unicode="&#x2dd;" horiz-adv-x="491" 
d="M83 576l108 144h102l3 -6l-136 -138h-77zM230 582l133 138h109l2 -6l-164 -138h-77z" />
    <glyph glyph-name="endash" unicode="&#x2013;" horiz-adv-x="501" 
d="M456 271h-410v86h410v-86z" />
    <glyph glyph-name="emdash" unicode="&#x2014;" horiz-adv-x="591" 
d="M546 271h-500v86h500v-86z" />
    <glyph glyph-name="quoteleft" unicode="&#x2018;" horiz-adv-x="226" 
d="M162 553q0 -28 -15.5 -46t-41.5 -18q-28 0 -46 19.5t-18 51.5q0 93 93 180l49 -31q-34 -39 -48 -88q2 -5 8.5 -15.5t9.5 -16.5t6 -16t3 -20z" />
    <glyph glyph-name="quoteright" unicode="&#x2019;" horiz-adv-x="226" 
d="M63 676q0 28 15.5 46t41.5 18q28 0 46 -19.5t18 -51.5q0 -93 -93 -180l-49 31q34 39 48 88q-2 5 -8.5 15.5t-9.5 16.5t-6 16t-3 20z" />
    <glyph glyph-name="quotesinglbase" unicode="&#x201a;" horiz-adv-x="211" 
d="M48 64q0 28 15.5 46t41.5 18q28 0 46 -19.5t18 -51.5q0 -93 -93 -180l-49 31q34 39 48 88q-2 5 -8.5 15.5t-9.5 16.5t-6 16t-3 20z" />
    <glyph glyph-name="quotedblleft" unicode="&#x201c;" horiz-adv-x="385" 
d="M162 555q0 -28 -15.5 -46t-41.5 -18q-28 0 -46 19.5t-18 51.5q0 93 93 180l49 -31q-34 -39 -48 -88q2 -5 8.5 -15.5t9.5 -16.5t6 -16t3 -20zM321 555q0 -28 -15.5 -46t-41.5 -18q-28 0 -46 19.5t-18 51.5q0 93 93 180l49 -31q-34 -39 -48 -88q2 -5 8.5 -15.5t9.5 -16.5
t6 -16t3 -20z" />
    <glyph glyph-name="quotedblright" unicode="&#x201d;" horiz-adv-x="385" 
d="M63 672q0 28 15.5 46t41.5 18q28 0 46 -19.5t18 -51.5q0 -93 -93 -180l-49 31q34 39 48 88q-2 5 -8.5 15.5t-9.5 16.5t-6 16t-3 20zM222 672q0 28 15.5 46t41.5 18q28 0 46 -19.5t18 -51.5q0 -93 -93 -180l-49 31q34 39 48 88q-2 5 -8.5 15.5t-9.5 16.5t-6 16t-3 20z" />
    <glyph glyph-name="quotedblbase" unicode="&#x201e;" horiz-adv-x="358" 
d="M44 57q0 28 15.5 46t41.5 18q28 0 46 -19.5t18 -51.5q0 -93 -93 -180l-49 31q34 39 48 88q-2 5 -8.5 15.5t-9.5 16.5t-6 16t-3 20zM200 57q0 28 15.5 46t41.5 18q28 0 46 -19.5t18 -51.5q0 -93 -93 -180l-49 31q34 39 48 88q-2 5 -8.5 15.5t-9.5 16.5t-6 16t-3 20z" />
    <glyph glyph-name="dagger" unicode="&#x2020;" horiz-adv-x="352" 
d="M334 414h-106v-584h-104v584h-106v86h106v230h104v-230h106v-86z" />
    <glyph glyph-name="daggerdbl" unicode="&#x2021;" horiz-adv-x="352" 
d="M334 0h-106v-170h-104v170h-106v86h106v328h-106v86h106v230h104v-230h106v-86h-106v-328h106v-86z" />
    <glyph glyph-name="bullet" unicode="&#x2022;" horiz-adv-x="313" 
d="M36 298q0 47 33.5 79.5t82.5 32.5t82.5 -32.5t33.5 -79.5t-33.5 -79.5t-82.5 -32.5t-82.5 32.5t-33.5 79.5z" />
    <glyph glyph-name="ellipsis" unicode="&#x2026;" horiz-adv-x="742" 
d="M16 58q0 28 20 48t47 20q28 0 48 -20t20 -48q0 -27 -20 -47t-48 -20q-27 0 -47 20t-20 47zM286 58q0 28 20 48t47 20q28 0 48 -20t20 -48q0 -27 -20 -47t-48 -20q-27 0 -47 20t-20 47zM556 58q0 28 20 48t47 20q28 0 48 -20t20 -48q0 -27 -20 -47t-48 -20q-27 0 -47 20
t-20 47z" />
    <glyph glyph-name="perthousand" unicode="&#x2030;" horiz-adv-x="1006" 
d="M660 139q0 63 43 105.5t110 42.5q66 0 109.5 -43t43.5 -105t-43.5 -105.5t-109.5 -43.5q-67 0 -110 43t-43 106zM739 139q0 -34 20 -56.5t54 -22.5q33 0 53.5 22.5t20.5 56.5q0 33 -20.5 55.5t-53.5 22.5q-34 0 -54 -22.5t-20 -55.5zM89 164l460 450l58 -58l-460 -450z
M55 563q0 62 43 105t110 43q66 0 109.5 -43t43.5 -105t-43.5 -105.5t-109.5 -43.5q-67 0 -110 43t-43 106zM134 563q0 -34 20 -56.5t54 -22.5q33 0 53.5 22.5t20.5 56.5q0 33 -20.5 55.5t-53.5 22.5q-34 0 -54 -22.5t-20 -55.5zM316 139q0 63 43 105.5t110 42.5
q66 0 109.5 -43t43.5 -105t-43.5 -105.5t-109.5 -43.5q-67 0 -110 43t-43 106zM395 139q0 -34 20 -56.5t54 -22.5q33 0 53.5 22.5t20.5 56.5q0 33 -20.5 55.5t-53.5 22.5q-34 0 -54 -22.5t-20 -55.5z" />
    <glyph glyph-name="guilsinglleft" unicode="&#x2039;" horiz-adv-x="306" 
d="M137 236l133 -156l-66 -59l-160 179v70l160 189l68 -58z" />
    <glyph glyph-name="guilsinglright" unicode="&#x203a;" horiz-adv-x="306" 
d="M179 244l-110 37l1 6l42 -3l160 -41v-4l-160 -43l-46 -3l-1 6l114 39v6z" />
    <glyph glyph-name="fraction" unicode="&#x2044;" horiz-adv-x="677" 
d="M89 164l460 450l58 -58l-460 -450z" />
    <glyph glyph-name="foursuperior" unicode="&#x2074;" horiz-adv-x="403" 
d="M233 364v64h-183v46l106 226h83l-95 -204h89v100h80v-100h48v-68h-48v-64h-80z" />
    <glyph glyph-name="Euro" unicode="&#x20ac;" horiz-adv-x="659" 
d="M226 350q0 -26 2 -38h279v-74h-261q28 -70 87 -112t133 -42q90 0 145 23l24 -89q-70 -28 -169 -28q-120 0 -211.5 68.5t-124.5 179.5h-103v74h89q-2 24 -2 38t2 44h-89v74h105q35 109 125.5 175.5t208.5 66.5q100 0 169 -29l-24 -88q-61 23 -145 23q-71 0 -128.5 -40.5
t-87.5 -107.5h257v-74h-278q-3 -22 -3 -44z" />
    <glyph glyph-name="trademark" unicode="&#x2122;" horiz-adv-x="587" 
d="M513 422v181l-6 1l-82 -182h-33l-83 185l-6 -1v-184h-49v278h64l87 -204h6l88 204h64v-278h-50zM221 658h-75v-236h-49v236h-77v42h201v-42z" />
    <glyph glyph-name="minus" unicode="&#x2212;" horiz-adv-x="491" 
d="M440 271h-390v94h390v-94z" />
    <glyph glyph-name="fl" unicode="&#xfb02;" horiz-adv-x="632" 
d="M599 89l-10 -98q-87 0 -132.5 40.5t-45.5 119.5v483q-53 12 -105 12q-55 0 -85.5 -33t-30.5 -93v-20h132v-90h-132v-410h-112v410h-69v90h69v20q0 100 62.5 160t165.5 60q58 0 105 -10h112v-571q0 -65 76 -70z" />
    <glyph glyph-name="a.alt" horiz-adv-x="573" 
d="M388 0v32l-5 3q-57 -45 -156 -45q-77 0 -129 43.5t-52 116.5t54.5 115t136.5 42t151 -27v26q0 53 -35.5 81.5t-88.5 28.5q-75 0 -149 -22l-16 86q90 30 183 30t155.5 -54t62.5 -146v-310h-112zM255 76q93 0 133 43v92q-52 18 -123 18q-46 0 -76.5 -20.5t-30.5 -56.5
t27.5 -56t69.5 -20z" />
    <glyph glyph-name="one.onum" horiz-adv-x="351" 
d="M154 0v486h-122v94h234v-580h-112z" />
    <glyph glyph-name="two.onum" horiz-adv-x="543" 
d="M509 0h-441v66l194 182q69 66 90.5 95t21.5 62q0 41 -27.5 62t-72.5 21q-84 0 -172 -57l-40 84q113 75 228 75q84 0 141 -46t57 -125q0 -52 -33 -96.5t-122 -131.5l-95 -91l2 -6h269v-94z" />
    <glyph glyph-name="three.onum" horiz-adv-x="501" 
d="M122 210v90h64q63 0 104.5 27t41.5 74t-35 73t-89 26q-96 0 -151 -23l-14 84q66 29 165 29q101 0 166.5 -50t65.5 -135q0 -47 -27.5 -85t-73.5 -59v-6q55 -22 88 -68t33 -107q0 -90 -68.5 -145t-173.5 -55q-108 0 -177 29l16 84q59 -23 161 -23q59 0 96.5 29.5t37.5 84.5
q0 62 -40.5 94t-105.5 32h-84z" />
    <glyph glyph-name="four.onum" horiz-adv-x="606" 
d="M381 -160v160h-346v64l231 516h111l-215 -486h219v168h112v-168h91v-94h-91v-160h-112z" />
    <glyph glyph-name="five.onum" horiz-adv-x="499" 
d="M49 236v344h376v-94h-264v-156h53q110 0 179 -59.5t69 -160.5q0 -103 -75 -166.5t-191 -63.5q-93 0 -155 19l17 91q64 -16 138 -16q69 0 111.5 34t42.5 102q0 63 -36.5 94.5t-99.5 31.5h-165z" />
    <glyph glyph-name="six.onum" horiz-adv-x="594" 
d="M422 710l20 -92q-169 -22 -240 -145q-29 -52 -38 -121l6 -2q27 32 73 51.5t98 19.5q89 0 151 -58.5t62 -151.5q0 -99 -73.5 -160t-176.5 -61q-115 1 -184.5 81t-69.5 195q0 122 48 225.5t149 161.5q70 41 175 57zM184 156q41 -72 123 -72q59 0 99 32.5t40 88.5
q0 59 -37 90.5t-97 31.5q-49 -1 -90 -24.5t-63 -63.5q5 -53 25 -83z" />
    <glyph glyph-name="seven.onum" horiz-adv-x="460" 
d="M445 514l-219 -634h-112l219 606h-320v94h432v-66z" />
    <glyph glyph-name="eight.onum" horiz-adv-x="611" 
d="M89 520q0 78 64 134t154 56t154.5 -56t64.5 -134q0 -47 -28.5 -87.5t-72.5 -62.5v-6q57 -23 94 -69.5t37 -99.5q0 -87 -72.5 -146t-176.5 -59q-103 0 -175.5 59t-72.5 146q0 53 36.5 99.5t93.5 69.5v6q-44 22 -72 62.5t-28 87.5zM167 202q0 -52 40.5 -85t99.5 -33
q60 0 100.5 33t40.5 85q0 49 -41 82.5t-100 33.5q-58 0 -99 -33.5t-41 -82.5zM197 514q0 -43 32.5 -72.5t77.5 -29.5q47 0 79 29.5t32 72.5q0 44 -32 73t-79 29q-46 0 -78 -29t-32 -73z" />
    <glyph glyph-name="nine.onum" horiz-adv-x="594" 
d="M182 -130l-20 92q171 22 240 137q29 51 38 119l-6 2q-27 -31 -73 -51t-97 -20q-89 0 -151.5 60t-62.5 156q0 101 73.5 163t176.5 62q115 -1 184.5 -83.5t69.5 -200.5q0 -119 -48 -220t-149 -158q-72 -42 -175 -58zM420 424q-39 72 -123 72q-58 0 -98.5 -33.5t-40.5 -91.5
q0 -64 37 -98t97 -34q49 1 90 24t63 63q-3 62 -25 98z" />
    <glyph glyph-name="zero.onum" horiz-adv-x="615" 
d="M41 290q0 129 68 214.5t198 85.5t198.5 -85.5t68.5 -214.5t-68.5 -214.5t-198.5 -85.5t-198 85.5t-68 214.5zM153 290q0 -90 37 -148t117 -58q81 0 118 58t37 148q0 53 -14 97.5t-50 76.5t-91 32q-54 0 -90.5 -32t-50 -76t-13.5 -98z" />
    <glyph glyph-name="one.smcp" horiz-adv-x="353" 
d="M154 0v486h-122v94h234v-580h-112z" />
    <glyph glyph-name="two.smcp" horiz-adv-x="521" 
d="M509 0h-441v66l194 182q69 66 90.5 95t21.5 62q0 41 -27.5 62t-72.5 21q-84 0 -172 -57l-40 84q113 75 228 75q84 0 141 -46t57 -125q0 -52 -33 -96.5t-122 -131.5l-95 -91l2 -6h269v-94z" />
    <glyph glyph-name="three.smcp" horiz-adv-x="489" 
d="M122 262v86h60q59 0 96.5 19t37.5 55q0 37 -29.5 55.5t-78.5 18.5q-99 0 -155 -23l-10 88q66 29 165 29q97 0 158.5 -42.5t61.5 -117.5q0 -78 -83 -122q48 -23 75.5 -60.5t27.5 -82.5q0 -72 -65.5 -118.5t-164.5 -46.5q-108 0 -177 29l12 88q64 -23 165 -23q52 0 85 21
t33 58q0 41 -38 65t-96 24h-80z" />
    <glyph glyph-name="four.smcp" horiz-adv-x="546" 
d="M325 0v115h-290v72l171 393h116l-161 -371h164v159h112v-159h87v-94h-87v-115h-112z" />
    <glyph glyph-name="five.smcp" horiz-adv-x="487" 
d="M53 296v304h360v-94h-256v-116h61q100 0 164 -55t64 -145q0 -85 -68.5 -137.5t-173.5 -52.5q-98 0 -163 19l13 91q76 -16 150 -16q58 0 94 24.5t36 71.5q0 52 -31.5 79t-84.5 27h-165z" />
    <glyph glyph-name="six.smcp" horiz-adv-x="570" 
d="M426 590l18 -90q-132 -3 -199 -58q-67 -48 -82 -130l5 -3q27 26 71.5 43t90.5 17q82 0 136 -53t54 -133q0 -87 -71.5 -140t-168.5 -53q-106 1 -168 66.5t-62 160.5q0 127 58 216.5t167 127.5q64 26 151 29zM168 154q35 -70 117 -70q52 0 87.5 28.5t35.5 78.5
q0 47 -30.5 73.5t-82.5 26.5q-41 -1 -80.5 -20t-60.5 -49q0 -41 14 -68z" />
    <glyph glyph-name="seven.smcp" horiz-adv-x="443" 
d="M421 514l-191 -514h-112l191 486h-296v94h408v-66z" />
    <glyph glyph-name="eight.smcp" horiz-adv-x="612" 
d="M89 425q0 71 60 118t156 47q95 0 156 -47.5t61 -118.5q0 -39 -22 -72t-59 -51v-6q50 -18 80.5 -54t30.5 -82q0 -72 -69 -120.5t-178 -48.5q-108 0 -177 49t-69 121q0 45 30 81.5t80 53.5v6q-80 42 -80 124zM171 168q0 -35 38.5 -59.5t95.5 -24.5q59 0 97 24t38 59
q0 38 -37.5 61.5t-97.5 23.5q-58 0 -96 -23.5t-38 -60.5zM201 417q0 -35 29 -57t75 -22t75.5 21.5t29.5 56.5t-29.5 57.5t-75.5 22.5q-45 0 -74.5 -22.5t-29.5 -56.5z" />
    <glyph glyph-name="nine.smcp" horiz-adv-x="570" 
d="M144 -10l-18 90q134 3 199 58q61 43 80 120l-5 3q-28 -25 -72 -41.5t-89 -16.5q-82 0 -135.5 54.5t-53.5 135.5q0 90 71 143.5t169 53.5q106 -1 168 -66.5t62 -160.5q0 -126 -57.5 -216t-166.5 -128q-65 -26 -152 -29zM416 349v8q0 42 -14 69q-35 70 -117 70
q-53 0 -88 -29t-35 -82q0 -48 30 -76t82 -28q42 1 81 19.5t61 48.5z" />
    <glyph glyph-name="zero.smcp" horiz-adv-x="615" 
d="M41 290q0 129 68 214.5t198 85.5t198.5 -85.5t68.5 -214.5t-68.5 -214.5t-198.5 -85.5t-198 85.5t-68 214.5zM153 290q0 -90 37 -148t117 -58q81 0 118 58t37 148q0 53 -14 97.5t-50 76.5t-91 32q-54 0 -90.5 -32t-50 -76t-13.5 -98z" />
    <glyph glyph-name="A.smcp" horiz-adv-x="622" 
d="M486 0l-54 139h-243l-54 -139h-122l244 580h107l244 -580h-122zM307 442l-85 -219h177l-86 219h-6z" />
    <glyph glyph-name="B.smcp" horiz-adv-x="584" 
d="M78 0v580h183q113 0 177.5 -46t64.5 -114q0 -40 -21.5 -71t-59.5 -45v-6q56 -15 88.5 -53t32.5 -85q0 -72 -63.5 -116t-178.5 -44h-223zM315 250h-125v-156h115q61 0 93.5 20t32.5 54q0 35 -30 58.5t-86 23.5zM265 486h-75v-146h85q116 0 116 73q0 31 -32.5 52t-93.5 21z
" />
    <glyph glyph-name="C.smcp" horiz-adv-x="538" 
d="M153 290q0 -89 63 -147.5t157 -58.5q78 0 125 23l24 -89q-61 -28 -149 -28q-142 0 -237 85.5t-95 214.5t95 214.5t237 85.5q88 0 149 -29l-24 -88q-52 23 -125 23q-93 0 -156.5 -61t-63.5 -145z" />
    <glyph glyph-name="D.smcp" horiz-adv-x="642" 
d="M78 0v580h201q144 0 233 -82t89 -208t-89 -208t-233 -82h-201zM279 486h-89v-392h89q97 0 153.5 55t56.5 141q0 82 -57.5 139t-152.5 57z" />
    <glyph glyph-name="E.smcp" horiz-adv-x="508" 
d="M467 0h-389v580h389v-94h-277v-141h261v-94h-261v-157h277v-94z" />
    <glyph glyph-name="F.smcp" horiz-adv-x="499" 
d="M451 243h-261v-243h-112v580h389v-94h-277v-149h261v-94z" />
    <glyph glyph-name="G.smcp" horiz-adv-x="640" 
d="M153 290q0 -89 63 -147.5t157 -58.5q54 0 89 5v191h112v-252q-82 -38 -201 -38q-142 0 -237 85.5t-95 214.5t95 214.5t237 85.5q104 0 169 -32l-24 -87q-65 25 -145 25q-93 0 -156.5 -61t-63.5 -145z" />
    <glyph glyph-name="H.smcp" horiz-adv-x="673" 
d="M483 0v251h-293v-251h-112v580h112v-235h293v235h112v-580h-112z" />
    <glyph glyph-name="I.smcp" horiz-adv-x="277" 
d="M82 0v580h112v-580h-112z" />
    <glyph glyph-name="J.smcp" horiz-adv-x="411" 
d="M222 182v390h112v-390q0 -87 -53.5 -139.5t-142.5 -52.5q-64 0 -115 22l18 88q42 -16 89 -16q43 0 67.5 26t24.5 72z" />
    <glyph glyph-name="K.smcp" horiz-adv-x="621" 
d="M462 0l-207 242l-65 -72v-170h-112v580h112v-264l6 -2l225 266h136l2 -5l-229 -251l273 -319l-2 -5h-139z" />
    <glyph glyph-name="L.smcp" horiz-adv-x="487" 
d="M78 0v580h112v-486h279v-94h-391z" />
    <glyph glyph-name="M.smcp" horiz-adv-x="829" 
d="M639 0v401l-6 2l-177 -403h-81l-179 408l-6 -2v-406h-112v580h148l186 -439h6l187 439h146v-580h-112z" />
    <glyph glyph-name="N.smcp" horiz-adv-x="713" 
d="M531 0l-335 409l-6 -2v-407h-112v580h104l335 -414l6 2v412h112v-580h-104z" />
    <glyph glyph-name="O.smcp" horiz-adv-x="711" 
d="M41 290q0 128 90.5 214t223.5 86q129 0 222 -86.5t93 -213.5q0 -128 -91 -214t-224 -86t-223.5 86t-90.5 214zM153 290q0 -89 57 -147.5t145 -58.5q86 0 144.5 58.5t58.5 147.5q0 84 -58 145t-145 61q-86 0 -144 -60.5t-58 -145.5z" />
    <glyph glyph-name="P.smcp" horiz-adv-x="578" 
d="M78 0v556h237q109 0 169.5 -54.5t60.5 -133.5q0 -81 -60 -134.5t-170 -53.5h-125v-180h-112zM315 462h-125v-188h125q60 0 89 26.5t29 67.5t-29.5 67.5t-88.5 26.5z" />
    <glyph glyph-name="Q.smcp" horiz-adv-x="749" 
d="M49 290q0 128 90.5 214t223.5 86q129 0 222 -86.5t93 -213.5q0 -112 -70 -193l107 -108l-75 -68l-111 111q-75 -42 -166 -42q-133 0 -223.5 86t-90.5 214zM161 290q0 -89 57 -147.5t145 -58.5q86 0 144.5 58.5t58.5 147.5q0 84 -58 145t-145 61q-86 0 -144 -60.5
t-58 -145.5z" />
    <glyph glyph-name="R.smcp" horiz-adv-x="593" 
d="M448 0l-132 204h-126v-204h-112v580h217q103 0 162.5 -54t59.5 -134q0 -109 -95 -160l153 -232h-127zM295 486h-105v-188h105q54 0 82 25.5t28 68.5t-28 68.5t-82 25.5z" />
    <glyph glyph-name="S.smcp" horiz-adv-x="505" 
d="M53 24l17 92q94 -30 163 -30q47 0 79 20t32 60q0 31 -25 50.5t-90 36.5q-178 42 -178 166q0 81 60.5 126t147.5 45q81 0 175 -36l-17 -89q-90 30 -154 30q-43 0 -72 -20t-29 -56q0 -28 24.5 -47t86.5 -34q182 -38 182 -170q0 -86 -63.5 -131.5t-154.5 -45.5
q-88 0 -184 33z" />
    <glyph glyph-name="T.smcp" horiz-adv-x="500" 
d="M482 486h-173v-486h-112v486h-179v94h464v-94z" />
    <glyph glyph-name="U.smcp" horiz-adv-x="662" 
d="M594 580v-362q0 -102 -75 -165t-188 -63t-187.5 63t-74.5 165v362h112v-362q0 -62 42.5 -98t107.5 -36q64 0 107.5 36t43.5 98v362h112z" />
    <glyph glyph-name="V.smcp" horiz-adv-x="630" 
d="M137 580l178 -456h6l171 456h124l-239 -580h-117l-247 580h124z" />
    <glyph glyph-name="W.smcp" horiz-adv-x="827" 
d="M458 580l134 -425h6l96 425h119l-154 -580h-113l-130 396h-6l-130 -396h-113l-154 580h119l96 -425h6l134 425h90z" />
    <glyph glyph-name="X.smcp" horiz-adv-x="629" 
d="M481 0l-165 214l-164 -214h-126l227 297l-217 283h128l152 -200l153 200h128l-217 -283l227 -297h-126z" />
    <glyph glyph-name="Y.smcp" horiz-adv-x="594" 
d="M137 580l159 -290l160 290h124l-228 -401v-179h-112v181l-227 399h124z" />
    <glyph glyph-name="Z.smcp" horiz-adv-x="543" 
d="M42 486v94h459v-66l-332 -415l3 -5h339v-94h-479v66l330 415l-3 5h-317z" />
    </font>
</defs>
</svg>
